<svg xmlns="http://www.w3.org/2000/svg" version="1.1" xmlns:xlink="http://www.w3.org/1999/xlink" xmlns:svgjs="http://svgjs.dev/svgjs" viewBox="0 0 800 800" opacity="1"><defs><filter id="bbburst-blur-1" x="-100%" y="-100%" width="400%" height="400%"><feGaussianBlur in="SourceGraphic" stdDeviation="1"></feGaussianBlur></filter><filter id="bbburst-blur-2" x="-100%" y="-100%" width="400%" height="400%"><feGaussianBlur in="SourceGraphic" stdDeviation="2"></feGaussianBlur></filter><filter id="bbburst-blur-3" x="-100%" y="-100%" width="400%" height="400%"><feGaussianBlur in="SourceGraphic" stdDeviation="4"></feGaussianBlur></filter><filter id="bbburst-blur-4" x="-100%" y="-100%" width="400%" height="400%"><feGaussianBlur in="SourceGraphic" stdDeviation="12"></feGaussianBlur></filter><symbol id="bbburst-shape-1" viewBox="0 0 194 167"><path d="m97 0 96.129 166.5H.871L97 0Z"></path></symbol><symbol id="bbburst-shape-4" viewBox="0 0 149 143"><path d="M71.647 2.781c.898-2.764 4.808-2.764 5.706 0l15.445 47.534a3 3 0 0 0 2.853 2.073h49.98c2.906 0 4.115 3.719 1.764 5.427L106.96 87.193a2.999 2.999 0 0 0-1.09 3.354l15.445 47.534c.898 2.764-2.266 5.062-4.617 3.354l-40.435-29.378a3 3 0 0 0-3.526 0l-40.435 29.378c-2.351 1.708-5.515-.59-4.617-3.354L43.13 90.547a3 3 0 0 0-1.09-3.354L1.605 57.815c-2.35-1.708-1.142-5.427 1.764-5.427h49.98a3 3 0 0 0 2.853-2.073L71.647 2.781Z"></path></symbol><symbol id="bbburst-shape-6" viewBox="0 0 133 116"><path d="M59.7487 10.2513c-13.6683-13.66839-35.8291-13.66839-49.4974 0-13.66839 13.6683-13.66839 35.8291 0 49.4974l49.4974-49.4974ZM66.5 66.5 41.7513 91.2487 66.5 115.997l24.7487-24.7483L66.5 66.5Zm56.249-6.7513c13.668-13.6683 13.668-35.8291 0-49.4974-13.669-13.66839-35.8294-13.66839-49.4977 0l49.4977 49.4974Zm-112.4977 0 31.5 31.5 49.4974-49.4974-31.5-31.5-49.4974 49.4974Zm80.9974 31.5 31.5003-31.5-49.4977-49.4974-31.5 31.5 49.4974 49.4974Z"></path></symbol><symbol id="bbburst-shape-8" viewBox="0 0 87 168"><path d="m12 12 31.2546 18.0749c16.4102 9.4902 20.014 31.6325 7.4603 45.8369L36.3296 92.1884c-12.5684 14.2206-8.9394 36.3916 7.5068 45.8636L75 156" stroke-width="14" stroke-linecap="round" stroke-linejoin="round"></path></symbol><symbol id="bbburst-shape-10" viewBox="0 0 145 145"><circle cx="72.5" cy="72.5" r="61.5" fill="none" stroke-width="22"></circle></symbol></defs><use xlink:href="#bbburst-shape-10" width="26.4723902249316" opacity="0.5793540671411703" transform="matrix(0.8862448687649487,0.4632170469529365,-0.4632170469529365,0.8862448687649487,477.5981628869808,202.53635686881557)" fill="none" stroke="#ffa6d5" filter="url(#bbburst-blur-1)"></use><use xlink:href="#bbburst-shape-6" width="15.800597413181247" opacity="0.7986171839130572" transform="matrix(0.9738959989015912,-0.2269946768615334,0.2269946768615334,0.9738959989015912,362.3881133377758,-54.89179614984795)" fill="#00a19d"></use><use xlink:href="#bbburst-shape-4" width="24.03555770006704" opacity="0.6011268767212085" transform="matrix(0.7454750155461267,0.6665335709448567,-0.6665335709448567,0.7454750155461267,546.4376534532631,-47.08032704734194)" fill="#2c2891" filter="url(#bbburst-blur-1)"></use><use xlink:href="#bbburst-shape-4" width="45.22084756614889" opacity="-0.07640429554502481" transform="matrix(1.706648942355398,-0.38710384596022884,0.38710384596022884,1.706648942355398,550.2439994334771,67.52096518114888)" fill="#ff5c58" filter="url(#bbburst-blur-4)"></use><use xlink:href="#bbburst-shape-6" width="22.59813930678602" opacity="0.8043285327145431" transform="matrix(0.8665083207225692,0.49916262892824137,-0.49916262892824137,0.8665083207225692,556.7634172482893,129.34639257297835)" fill="#ffa6d5"></use><use xlink:href="#bbburst-shape-10" width="46.47163889226066" opacity="0.15286669749796322" transform="matrix(1.1881293912464255,0.3883922626113946,-0.3883922626113946,1.1881293912464255,806.5453890822148,-344.26493002746327)" fill="none" stroke="#2c2891" filter="url(#bbburst-blur-3)"></use><use xlink:href="#bbburst-shape-10" width="15.00490122079057" opacity="0.8850200597342208" transform="matrix(0.719137108087639,0.6948682031661453,-0.6948682031661453,0.719137108087639,709.9504988772735,142.88778029903858)" fill="none" stroke="#00a19d"></use><use xlink:href="#bbburst-shape-1" width="35.75997234545847" opacity="0.33487270982822526" transform="matrix(0.7106688688847174,-0.7035266582000403,0.7035266582000403,0.7106688688847174,272.9608049193411,376.6999421914741)" fill="#ffbd9b" filter="url(#bbburst-blur-2)"></use><use xlink:href="#bbburst-shape-10" width="35.343941188085154" opacity="0.09210927839460181" transform="matrix(1.695098373272509,-0.434904018064784,0.434904018064784,1.695098373272509,555.3257723377576,-464.92556570547055)" fill="none" stroke="#ffa6d5" filter="url(#bbburst-blur-4)"></use><use xlink:href="#bbburst-shape-10" width="39.766046142193474" opacity="0.5272195533593045" transform="matrix(0.9946748217118565,0.10306308287881925,-0.10306308287881925,0.9946748217118565,561.3550651547769,160.35912203241935)" fill="none" stroke="#2c2891" filter="url(#bbburst-blur-2)"></use><use xlink:href="#bbburst-shape-4" width="14.360121820588482" opacity="0.9459256166274697" transform="matrix(0.7230060417266307,-0.6908417066353113,0.6908417066353113,0.7230060417266307,113.1416673350783,92.02687072362983)" fill="#00a19d"></use><use xlink:href="#bbburst-shape-10" width="32.79499773240129" opacity="0.3690032228516389" transform="matrix(0.8563147343285966,0.5164543307706356,-0.5164543307706356,0.8563147343285966,474.0737530096343,307.06068282344967)" fill="none" stroke="#2c2891" filter="url(#bbburst-blur-2)"></use><use xlink:href="#bbburst-shape-4" width="21.642506645177388" opacity="0.7072597616168333" transform="matrix(0.979754976292189,-0.20020036571068522,0.20020036571068522,0.979754976292189,250.23502605646564,-107.45497967928793)" fill="#ffa6d5" filter="url(#bbburst-blur-1)"></use><use xlink:href="#bbburst-shape-6" width="37.28196911810001" opacity="0.5644805210418762" transform="matrix(0.9566791944807557,0.2911441547543973,-0.2911441547543973,0.9566791944807557,686.0302915388215,69.24737640990787)" fill="#00a19d" filter="url(#bbburst-blur-1)"></use><use xlink:href="#bbburst-shape-10" width="29.157782445826932" opacity="0.6669942101467821" transform="matrix(0.9877019541443176,-0.15634848825459222,0.15634848825459222,0.9877019541443176,440.3895774190024,100.41774417720785)" fill="none" stroke="#00a19d" filter="url(#bbburst-blur-1)"></use><use xlink:href="#bbburst-shape-6" width="18.618277401970246" opacity="0.7922418905507721" transform="matrix(0.9936054497501855,0.11290797237897557,-0.11290797237897557,0.9936054497501855,511.681038700463,56.27812960056116)" fill="#00a19d"></use><use xlink:href="#bbburst-shape-4" width="17.223282757453603" opacity="0.9622066773448368" transform="matrix(0.9895988679220219,0.1438543729173798,-0.1438543729173798,0.9895988679220219,465.5660588561818,6.85878253154948)" fill="#2c2891"></use><use xlink:href="#bbburst-shape-6" width="15.570643894810237" opacity="0.8530186814947428" transform="matrix(0.9761500844721823,0.21709678160892026,-0.21709678160892026,0.9761500844721823,436.6784777573313,-42.77914007766617)" fill="#ff5c58"></use><use xlink:href="#bbburst-shape-10" width="31.858781425178734" opacity="0.5410206758624814" transform="matrix(0.8181339861212356,-0.5750276347736498,0.5750276347736498,0.8181339861212356,267.8134910919056,-92.36308103624853)" fill="none" stroke="#00a19d" filter="url(#bbburst-blur-2)"></use><use xlink:href="#bbburst-shape-6" width="39.25302012513438" opacity="0.49894756009598806" transform="matrix(0.8008371800147627,0.5988821345690674,-0.5988821345690674,0.8008371800147627,406.68585431655526,7.210533823902608)" fill="#ff5c58" filter="url(#bbburst-blur-2)"></use><use xlink:href="#bbburst-shape-6" width="39.997232067434396" opacity="0.08026549761691515" transform="matrix(1.7027730157231398,-0.40381190785454096,0.40381190785454096,1.7027730157231398,-149.76361197201877,-487.15751540884844)" fill="#2c2891" filter="url(#bbburst-blur-4)"></use><use xlink:href="#bbburst-shape-10" width="31.480447557444727" opacity="0.34562797358794084" transform="matrix(0.9997915483942776,0.0204171437613792,-0.0204171437613792,0.9997915483942776,98.5122971877171,17.747470654598203)" fill="none" stroke="#00a19d" filter="url(#bbburst-blur-2)"></use><use xlink:href="#bbburst-shape-1" width="30.857879638546805" opacity="0.4119938831080663" transform="matrix(0.9825223050167162,0.18614489019212657,-0.18614489019212657,0.9825223050167162,433.39957621075285,-259.1748125053018)" fill="#2c2891" filter="url(#bbburst-blur-2)"></use><use xlink:href="#bbburst-shape-1" width="40.63509758252665" opacity="0.4336235763097619" transform="matrix(0.9999990182736151,0.0014012322455550915,-0.0014012322455550915,0.9999990182736151,206.97225552574838,186.93520211081727)" fill="#00a19d" filter="url(#bbburst-blur-2)"></use><use xlink:href="#bbburst-shape-4" width="37.514343422465686" opacity="0.0879710954368087" transform="matrix(1.7459971971408055,0.1182953404680478,-0.1182953404680478,1.7459971971408055,621.5171481809841,-654.9722750034639)" fill="#2c2891" filter="url(#bbburst-blur-4)"></use><use xlink:href="#bbburst-shape-6" width="46.172275927714736" opacity="0.07704812593199517" transform="matrix(1.39400695670095,1.0579435734808147,-1.0579435734808147,1.39400695670095,1024.5347251772262,161.42228079633105)" fill="#ffa6d5" filter="url(#bbburst-blur-4)"></use><use xlink:href="#bbburst-shape-6" width="22.40753265947593" opacity="0.5552868732795816" transform="matrix(0.999434240281802,-0.03363330718702966,0.03363330718702966,0.999434240281802,394.86040310349273,-198.56411827805505)" fill="#ffa6d5" filter="url(#bbburst-blur-2)"></use><use xlink:href="#bbburst-shape-4" width="46.6656535234887" opacity="0.10581780792200424" transform="matrix(1.7452855005465122,-0.12836869393318118,0.12836869393318118,1.7452855005465122,-38.15088631241359,-89.77553228771774)" fill="#00a19d" filter="url(#bbburst-blur-4)"></use><use xlink:href="#bbburst-shape-8" width="35.220107347551185" opacity="0.16570074125373968" transform="matrix(1.2164880466787946,0.2875010126723226,-0.2875010126723226,1.2164880466787946,361.47126293585546,259.7661213986137)" fill="none" stroke="#00a19d" filter="url(#bbburst-blur-3)"></use><use xlink:href="#bbburst-shape-10" width="34.8692805378698" opacity="0.22110275388124379" transform="matrix(1.2124542829666083,0.304063499479842,-0.304063499479842,1.2124542829666083,455.8210509346663,-437.9291357357917)" fill="none" stroke="#ffa6d5" filter="url(#bbburst-blur-3)"></use><use xlink:href="#bbburst-shape-10" width="22.17704947701801" opacity="0.6468188419183845" transform="matrix(0.8890505792111194,-0.45780898593668207,0.45780898593668207,0.8890505792111194,183.79054914699998,-107.76883421248809)" fill="none" stroke="#ffa6d5" filter="url(#bbburst-blur-1)"></use><use xlink:href="#bbburst-shape-4" width="15.996084762267875" opacity="0.7609560222778025" transform="matrix(0.9997810312654563,-0.020925809943244767,0.020925809943244767,0.9997810312654563,276.06778484925593,-0.6486201424671094)" fill="#ffa6d5" filter="url(#bbburst-blur-1)"></use><use xlink:href="#bbburst-shape-4" width="36.10637084789093" opacity="0.40665842515341033" transform="matrix(0.9517574661025292,-0.30685130880948336,0.30685130880948336,0.9517574661025292,490.3546711862036,160.02658986559072)" fill="#ffa6d5" filter="url(#bbburst-blur-2)"></use><use xlink:href="#bbburst-shape-10" width="33.298630657683155" opacity="0.3151871495951064" transform="matrix(1.2096200355240099,-0.31514975751044616,0.31514975751044616,1.2096200355240099,520.0418697910251,-233.7841940474786)" fill="none" stroke="#00a19d" filter="url(#bbburst-blur-3)"></use><use xlink:href="#bbburst-shape-1" width="31.048920002783916" opacity="0.39745756703210633" transform="matrix(0.845303133778893,0.5342870127783221,-0.5342870127783221,0.845303133778893,869.7483096453541,86.21346594007628)" fill="#00a19d" filter="url(#bbburst-blur-2)"></use><use xlink:href="#bbburst-shape-10" width="12.296053206663961" opacity="0.8905942888981112" transform="matrix(0.916140406926058,0.4008575243117646,-0.4008575243117646,0.916140406926058,516.2807241304083,61.85264098490762)" fill="none" stroke="#ffa6d5"></use><use xlink:href="#bbburst-shape-10" width="39.01682000325623" opacity="0.2553599602619889" transform="matrix(1.158006165383438,-0.4706609405229481,0.4706609405229481,1.158006165383438,-71.98019908075773,-264.0152112154916)" fill="none" stroke="#ffa6d5" filter="url(#bbburst-blur-3)"></use><use xlink:href="#bbburst-shape-10" width="33.23585003841363" opacity="0.06326266571152706" transform="matrix(1.6970402127294513,-0.42726398909711427,0.42726398909711427,1.6970402127294513,557.2832480567345,-46.60451920750245)" fill="none" stroke="#2c2891" filter="url(#bbburst-blur-4)"></use><use xlink:href="#bbburst-shape-8" width="40.82846787292973" opacity="-0.07103869684109809" transform="matrix(1.511018702790777,-0.8827924330308214,0.8827924330308214,1.511018702790777,-334.20342304387,144.70987298478974)" fill="none" stroke="#00a19d" filter="url(#bbburst-blur-4)"></use><use xlink:href="#bbburst-shape-10" width="43.884200645519726" opacity="0.22147392050774573" transform="matrix(0.9379708702211056,-0.8262630613894474,0.8262630613894474,0.9379708702211056,313.16267511411735,272.9596864962159)" fill="none" stroke="#2c2891" filter="url(#bbburst-blur-3)"></use><use xlink:href="#bbburst-shape-8" width="25.209355947677" opacity="0.6539082196423114" transform="matrix(0.7755167313709194,0.6313270146000132,-0.6313270146000132,0.7755167313709194,695.0017413109276,228.55200974834332)" fill="none" stroke="#ffa6d5" filter="url(#bbburst-blur-1)"></use><use xlink:href="#bbburst-shape-4" width="37.00009211983683" opacity="0.3295989119008772" transform="matrix(1.247322768984257,-0.08176741388503003,0.08176741388503003,1.247322768984257,60.61886375843335,-200.24050296383575)" fill="#ff5c58" filter="url(#bbburst-blur-3)"></use><use xlink:href="#bbburst-shape-4" width="33.11407806492605" opacity="0.44793083549743584" transform="matrix(0.9988348750321627,0.04825859943558096,-0.04825859943558096,0.9988348750321627,589.2588930609129,-164.43016904371788)" fill="#ffbd9b" filter="url(#bbburst-blur-2)"></use><use xlink:href="#bbburst-shape-10" width="36.982091161052594" opacity="0.33786196373050326" transform="matrix(0.7695742954964702,0.6385572830303571,-0.6385572830303571,0.7695742954964702,493.8715938816753,-178.6313708197767)" fill="none" stroke="#00a19d" filter="url(#bbburst-blur-2)"></use><use xlink:href="#bbburst-shape-6" width="39.29484337522352" opacity="-0.07494318492765695" transform="matrix(1.5647549159915939,-0.7836083542689806,0.7836083542689806,1.5647549159915939,399.5669239574939,-550.8331994620169)" fill="#00a19d" filter="url(#bbburst-blur-4)"></use><use xlink:href="#bbburst-shape-6" width="27.75675033291045" opacity="0.6695156795204442" transform="matrix(0.8669835699378681,-0.49833672296730225,0.49833672296730225,0.8669835699378681,46.282257076303665,103.17245279660409)" fill="#2c2891" filter="url(#bbburst-blur-1)"></use><use xlink:href="#bbburst-shape-10" width="23.511006992246482" opacity="0.6950018877576783" transform="matrix(0.9981342704497538,-0.06105717119010505,0.06105717119010505,0.9981342704497538,341.3461041575518,136.8567879482639)" fill="none" stroke="#00a19d" filter="url(#bbburst-blur-1)"></use><use xlink:href="#bbburst-shape-4" width="17.514887873622634" opacity="0.8429306948787827" transform="matrix(0.9913644976068184,0.13113517028158564,-0.13113517028158564,0.9913644976068184,514.4426000389589,1.2114060377805913)" fill="#ff5c58"></use><use xlink:href="#bbburst-shape-6" width="19.143991816843723" opacity="0.6746294350657975" transform="matrix(0.9999452474323897,0.010464326895559333,-0.010464326895559333,0.9999452474323897,436.6039590268918,-140.34469061052334)" fill="#2c2891" filter="url(#bbburst-blur-1)"></use><use xlink:href="#bbburst-shape-10" width="28.72415444667768" opacity="0.5205598733823023" transform="matrix(0.9998104087760828,-0.01947168464725346,0.01947168464725346,0.9998104087760828,163.79364908546887,27.304853409595182)" fill="none" stroke="#2c2891" filter="url(#bbburst-blur-2)"></use><use xlink:href="#bbburst-shape-4" width="25.43762682181996" opacity="0.7454209584536302" transform="matrix(0.8470084548610324,0.5315794177673986,-0.5315794177673986,0.8470084548610324,510.6470819883775,-14.875877131560287)" fill="#ffa6d5" filter="url(#bbburst-blur-1)"></use><use xlink:href="#bbburst-shape-8" width="26.090052631869607" opacity="0.5960572501445955" transform="matrix(0.9970456647470045,0.07681108259362034,-0.07681108259362034,0.9970456647470045,573.0717744574986,-94.19746163515515)" fill="none" stroke="#2c2891" filter="url(#bbburst-blur-1)"></use><use xlink:href="#bbburst-shape-10" width="40.95614486335122" opacity="-0.07637899846932039" transform="matrix(1.7340383345248338,-0.2358199618317769,0.2358199618317769,1.7340383345248338,-73.13183823751798,-630.493634865376)" fill="none" stroke="#00a19d" filter="url(#bbburst-blur-4)"></use><use xlink:href="#bbburst-shape-10" width="20.94309905329027" opacity="0.7880498583011469" transform="matrix(0.9621944907133043,-0.27236329055319664,0.27236329055319664,0.9621944907133043,259.9446505918703,-75.05494707211079)" fill="none" stroke="#2c2891"></use><use xlink:href="#bbburst-shape-6" width="23.61067997221374" opacity="0.5999382594466245" transform="matrix(0.8377920816773126,0.5459894027165686,-0.5459894027165686,0.8377920816773126,456.07300793308764,-37.3454700595388)" fill="#00a19d" filter="url(#bbburst-blur-1)"></use><use xlink:href="#bbburst-shape-4" width="17.04372167608387" opacity="0.8013625299639919" transform="matrix(0.9999104252688705,-0.013384372926155715,0.013384372926155715,0.9999104252688705,307.5209544881792,42.72542760226315)" fill="#ffa6d5"></use><use xlink:href="#bbburst-shape-4" width="26.49659425924824" opacity="0.1678862271384136" transform="matrix(0.957883667552035,-0.8030933192581435,0.8030933192581435,0.957883667552035,133.87288226030273,-340.7561721971647)" fill="#2c2891" filter="url(#bbburst-blur-3)"></use><use xlink:href="#bbburst-shape-10" width="31.622796257694255" opacity="0.6074595930478723" transform="matrix(0.9871513572812739,0.15978797770088593,-0.15978797770088593,0.9871513572812739,623.7042290814791,-18.329967855019845)" fill="none" stroke="#2c2891" filter="url(#bbburst-blur-1)"></use><use xlink:href="#bbburst-shape-10" width="33.95664487649909" opacity="0.19708327237036327" transform="matrix(1.1722219239206342,-0.43404580527843717,0.43404580527843717,1.1722219239206342,547.3303278111396,58.344462389884484)" fill="none" stroke="#ffa6d5" filter="url(#bbburst-blur-3)"></use><use xlink:href="#bbburst-shape-10" width="15.433583188560473" opacity="0.8395641167792202" transform="matrix(0.8758418125587081,-0.4825983002185948,0.4825983002185948,0.8758418125587081,130.08353210020462,36.19185390332785)" fill="none" stroke="#2c2891"></use><use xlink:href="#bbburst-shape-6" width="35.003101851918814" opacity="0.32826000101619834" transform="matrix(1.1478444333276299,0.4949274258704727,-0.4949274258704727,1.1478444333276299,649.1047401829408,225.9731875044032)" fill="#00a19d" filter="url(#bbburst-blur-3)"></use><use xlink:href="#bbburst-shape-8" width="38.8951469738613" opacity="0.3630305880507928" transform="matrix(0.996680371435237,0.08141398648707639,-0.08141398648707639,0.996680371435237,384.3386472388143,284.925820383135)" fill="none" stroke="#2c2891" filter="url(#bbburst-blur-2)"></use><use xlink:href="#bbburst-shape-6" width="30.69413333978313" opacity="0.44831020237587726" transform="matrix(0.8533308145868755,0.521369850371595,-0.521369850371595,0.8533308145868755,835.8595034202233,-11.279401509465401)" fill="#00a19d" filter="url(#bbburst-blur-2)"></use><use xlink:href="#bbburst-shape-4" width="39.488671344810754" opacity="0.22432749300846666" transform="matrix(1.242380717736426,0.1378047611540425,-0.1378047611540425,1.242380717736426,193.65580622907564,156.69421099869044)" fill="#00a19d" filter="url(#bbburst-blur-3)"></use><use xlink:href="#bbburst-shape-6" width="12.744692870719776" opacity="0.9340370168741862" transform="matrix(0.9988756225957286,-0.04740770595584172,0.04740770595584172,0.9988756225957286,345.0908403175783,-1.7120089083999233)" fill="#2c2891"></use><use xlink:href="#bbburst-shape-6" width="26.117534325710213" opacity="0.19225061759711648" transform="matrix(1.0424475153981418,-0.689784877799043,0.689784877799043,1.0424475153981418,104.4486285063814,355.4663169544923)" fill="#2c2891" filter="url(#bbburst-blur-3)"></use><use xlink:href="#bbburst-shape-4" width="27.177612474511573" opacity="0.5417709345692585" transform="matrix(0.8886190371752415,-0.4586460582734215,0.4586460582734215,0.8886190371752415,26.012900437869746,154.10278349595268)" fill="#ff5c58" filter="url(#bbburst-blur-2)"></use><use xlink:href="#bbburst-shape-6" width="30.8138627350704" opacity="0.2025095737672954" transform="matrix(0.95133485294011,0.8108403033775636,-0.8108403033775636,0.95133485294011,1068.1018232477059,24.890703618043858)" fill="#ffa6d5" filter="url(#bbburst-blur-3)"></use><use xlink:href="#bbburst-shape-4" width="22.8536523159923" opacity="0.6967248308851859" transform="matrix(0.9083673454665974,-0.41817312884733204,0.41817312884733204,0.9083673454665974,125.94608738013824,138.03985317120197)" fill="#00a19d" filter="url(#bbburst-blur-1)"></use><use xlink:href="#bbburst-shape-10" width="27.9172867167815" opacity="0.5395315994479412" transform="matrix(0.8593119863868075,0.511451767082644,-0.511451767082644,0.8593119863868075,566.5063687521342,254.69907825800863)" fill="none" stroke="#ffa6d5" filter="url(#bbburst-blur-2)"></use><use xlink:href="#bbburst-shape-10" width="42.03240004726122" opacity="0.09657007628867953" transform="matrix(1.6623788828056525,-0.5468056784652398,0.5468056784652398,1.6623788828056525,-95.41215358948227,-580.3130744617202)" fill="none" stroke="#00a19d" filter="url(#bbburst-blur-4)"></use><use xlink:href="#bbburst-shape-8" width="42.295189396188476" opacity="0.21827829622702188" transform="matrix(0.8847982997791125,0.8829677053595969,-0.8829677053595969,0.8847982997791125,1077.2575752563741,-51.62415739318578)" fill="none" stroke="#ff5c58" filter="url(#bbburst-blur-3)"></use><use xlink:href="#bbburst-shape-1" width="21.58867421286526" opacity="0.7211801660469304" transform="matrix(0.992742752235887,0.1202573402463079,-0.1202573402463079,0.992742752235887,561.0491141977337,22.828798641571495)" fill="#2c2891" filter="url(#bbburst-blur-1)"></use><use xlink:href="#bbburst-shape-6" width="21.588828974717046" opacity="0.4470541357717286" transform="matrix(0.8139239604926586,-0.5809714162813393,0.5809714162813393,0.8139239604926586,237.34786185003819,-155.4093016136902)" fill="#2c2891" filter="url(#bbburst-blur-2)"></use><use xlink:href="#bbburst-shape-4" width="42.1465434363639" opacity="0.4441434816367512" transform="matrix(0.8990267665950011,-0.437893677672717,0.437893677672717,0.8990267665950011,17.46278551519788,-114.82928740373444)" fill="#ffa6d5" filter="url(#bbburst-blur-2)"></use><use xlink:href="#bbburst-shape-1" width="40.122382871912706" opacity="0.04067948879448624" transform="matrix(1.6008095728269633,0.7070422275547301,-0.7070422275547301,1.6008095728269633,403.36017640709855,99.41043678558947)" fill="#00a19d" filter="url(#bbburst-blur-4)"></use><use xlink:href="#bbburst-shape-6" width="30.22493081654159" opacity="0.15750438693994573" transform="matrix(1.2451244157272103,-0.11029591724072552,0.11029591724072552,1.2451244157272103,462.0494056836045,261.5464169037423)" fill="#00a19d" filter="url(#bbburst-blur-3)"></use><use xlink:href="#bbburst-shape-1" width="33.36235177352792" opacity="0.498850122014484" transform="matrix(0.8102635782149306,0.5860656395134739,-0.5860656395134739,0.8102635782149306,684.9471662622818,282.380194208307)" fill="#00a19d" filter="url(#bbburst-blur-2)"></use><use xlink:href="#bbburst-shape-10" width="29.533347431082074" opacity="0.18035899549559253" transform="matrix(1.1857908565271882,-0.39547445502398465,0.39547445502398465,1.1857908565271882,-137.82277464656664,-138.53974330786133)" fill="none" stroke="#2c2891" filter="url(#bbburst-blur-3)"></use><use xlink:href="#bbburst-shape-4" width="42.26135979605548" opacity="0.14317618540436117" transform="matrix(1.1030113726946347,0.588103657280158,-0.588103657280158,1.1030113726946347,465.3347389782351,-410.21243609258846)" fill="#2c2891" filter="url(#bbburst-blur-3)"></use><use xlink:href="#bbburst-shape-6" width="21.979199950879604" opacity="0.6836272108953485" transform="matrix(0.9564477937821716,0.29190343911851496,-0.29190343911851496,0.9564477937821716,597.5812722905496,-94.99867107686822)" fill="#2c2891" filter="url(#bbburst-blur-1)"></use><use xlink:href="#bbburst-shape-1" width="19.542560553788473" opacity="0.7855526214226866" transform="matrix(0.9978773215015498,0.06512181840898217,-0.06512181840898217,0.9978773215015498,438.97053716302446,-93.56188557104849)" fill="#00a19d"></use><use xlink:href="#bbburst-shape-4" width="45.553620141943725" opacity="0.3074325634289409" transform="matrix(1.0643603970478324,-0.6554669672807172,0.6554669672807172,1.0643603970478324,289.10207684513546,-268.3113485528683)" fill="#00a19d" filter="url(#bbburst-blur-3)"></use><use xlink:href="#bbburst-shape-10" width="26.71099820563448" opacity="0.6588235845431963" transform="matrix(0.716979847331784,0.6970938950529489,-0.6970938950529489,0.716979847331784,518.6310462577549,74.20613220276118)" fill="none" stroke="#ff5c58" filter="url(#bbburst-blur-1)"></use><use xlink:href="#bbburst-shape-4" width="23.241628326561607" opacity="0.2985371963089106" transform="matrix(1.2160361036801368,0.28940662491800667,-0.28940662491800667,1.2160361036801368,584.762858232325,-394.26508833482325)" fill="#ffbd9b" filter="url(#bbburst-blur-3)"></use><use xlink:href="#bbburst-shape-10" width="16.66213762543108" opacity="0.8766597875209476" transform="matrix(0.7803585194311146,0.6253323765416906,-0.6253323765416906,0.7803585194311146,646.8147741412095,27.23516752420187)" fill="none" stroke="#2c2891"></use><use xlink:href="#bbburst-shape-4" width="21.086253048548773" opacity="0.7837625511051707" transform="matrix(0.9833743165412878,0.18159007012211617,-0.18159007012211617,0.9833743165412878,494.9865415438383,96.39463365828732)" fill="#ffbd9b"></use><use xlink:href="#bbburst-shape-10" width="14.996374996546301" opacity="0.8872188264860308" transform="matrix(0.8267152384172108,0.5626205778042377,-0.5626205778042377,0.8267152384172108,658.1585261895733,32.993757360544805)" fill="none" stroke="#ffbd9b"></use><use xlink:href="#bbburst-shape-6" width="27.338530537963937" opacity="0.7425552769041965" transform="matrix(0.8964330206740615,-0.4431792407651533,0.4431792407651533,0.8964330206740615,318.060213944732,4.512377547448978)" fill="#ff5c58" filter="url(#bbburst-blur-1)"></use><use xlink:href="#bbburst-shape-10" width="36.698466604549694" opacity="0.3426320651633038" transform="matrix(0.8781670950862729,0.4783540039633168,-0.4783540039633168,0.8781670950862729,312.8362386376491,176.54808039878117)" fill="none" stroke="#00a19d" filter="url(#bbburst-blur-2)"></use><use xlink:href="#bbburst-shape-1" width="13.817452584610072" opacity="0.8955774716380311" transform="matrix(0.98657638792483,-0.16330043107473788,0.16330043107473788,0.98657638792483,327.7168545532945,53.505113390950044)" fill="#ffa6d5"></use><use xlink:href="#bbburst-shape-4" width="35.732065506532805" opacity="0.1834421413963666" transform="matrix(1.091376360017291,-0.6094240238088817,0.6094240238088817,1.091376360017291,-222.05885741097126,53.59018704513238)" fill="#ffa6d5" filter="url(#bbburst-blur-3)"></use><use xlink:href="#bbburst-shape-10" width="27.15510830669092" opacity="0.5140848254161187" transform="matrix(0.7631812210756587,0.6461845121925058,-0.6461845121925058,0.7631812210756587,563.221394548502,-115.55697411211037)" fill="none" stroke="#ff5c58" filter="url(#bbburst-blur-2)"></use></svg>