<svg xmlns="http://www.w3.org/2000/svg" version="1.1" xmlns:xlink="http://www.w3.org/1999/xlink" xmlns:svgjs="http://svgjs.dev/svgjs" viewBox="0 0 800 800"><defs><linearGradient x1="50%" y1="0%" x2="50%" y2="100%" id="ffflurry-grad" gradientTransform="rotate(270)"><stop stop-color="hsl(238, 20%, 89%)" stop-opacity="1" offset="0%"></stop><stop stop-color="hsl(162, 100%, 58%)" stop-opacity="1" offset="45%"></stop><stop stop-color="hsl(270, 73%, 53%)" stop-opacity="1" offset="100%"></stop></linearGradient></defs><rect width="100%" height="100%" fill="hsl(238, 20%, 89%)"></rect><g fill="url(#ffflurry-grad)"><rect width="135" height="2" x="350.5" y="769" rx="1" transform="rotate(165, 418, 770)" opacity="0.66"></rect><rect width="42" height="2" x="347" y="654" rx="1" transform="rotate(165, 368, 655)" opacity="0.93"></rect><rect width="117" height="2" x="306.5" y="52" rx="1" transform="rotate(165, 365, 53)" opacity="0.77"></rect><rect width="185" height="2" x="131.5" y="287" rx="1" transform="rotate(165, 224, 288)" opacity="0.34"></rect><rect width="56" height="2" x="384" y="265" rx="1" transform="rotate(165, 412, 266)" opacity="0.49"></rect><rect width="152" height="2" x="210" y="244" rx="1" transform="rotate(165, 286, 245)" opacity="0.08"></rect><rect width="242" height="2" x="348" y="574" rx="1" transform="rotate(165, 469, 575)" opacity="0.91"></rect><rect width="172" height="2" x="420" y="264" rx="1" transform="rotate(165, 506, 265)" opacity="0.36"></rect><rect width="73" height="2" x="732.5" y="712" rx="1" transform="rotate(165, 769, 713)" opacity="0.67"></rect><rect width="240" height="2" x="-85" y="334" rx="1" transform="rotate(165, 35, 335)" opacity="0.17"></rect><rect width="201" height="2" x="132.5" y="353" rx="1" transform="rotate(165, 233, 354)" opacity="0.61"></rect><rect width="109" height="2" x="619.5" y="646" rx="1" transform="rotate(165, 674, 647)" opacity="0.65"></rect><rect width="167" height="2" x="70.5" y="541" rx="1" transform="rotate(165, 154, 542)" opacity="0.36"></rect><rect width="28" height="2" x="489" y="440" rx="1" transform="rotate(165, 503, 441)" opacity="0.22"></rect><rect width="279" height="2" x="117.5" y="728" rx="1" transform="rotate(165, 257, 729)" opacity="0.91"></rect><rect width="130" height="2" x="551" y="132" rx="1" transform="rotate(165, 616, 133)" opacity="0.18"></rect><rect width="71" height="2" x="181.5" y="215" rx="1" transform="rotate(165, 217, 216)" opacity="0.82"></rect><rect width="199" height="2" x="634.5" y="422" rx="1" transform="rotate(165, 734, 423)" opacity="0.66"></rect><rect width="67" height="2" x="125.5" y="375" rx="1" transform="rotate(165, 159, 376)" opacity="0.52"></rect><rect width="104" height="2" x="716" y="336" rx="1" transform="rotate(165, 768, 337)" opacity="0.88"></rect><rect width="208" height="2" x="314" y="341" rx="1" transform="rotate(165, 418, 342)" opacity="0.63"></rect><rect width="101" height="2" x="115.5" y="335" rx="1" transform="rotate(165, 166, 336)" opacity="0.68"></rect><rect width="203" height="2" x="-2.5" y="350" rx="1" transform="rotate(165, 99, 351)" opacity="0.27"></rect><rect width="222" height="2" x="567" y="733" rx="1" transform="rotate(165, 678, 734)" opacity="0.61"></rect><rect width="74" height="2" x="550" y="37" rx="1" transform="rotate(165, 587, 38)" opacity="0.08"></rect><rect width="209" height="2" x="-45.5" y="97" rx="1" transform="rotate(165, 59, 98)" opacity="0.67"></rect><rect width="204" height="2" x="390" y="45" rx="1" transform="rotate(165, 492, 46)" opacity="0.33"></rect><rect width="186" height="2" x="112" y="30" rx="1" transform="rotate(165, 205, 31)" opacity="0.21"></rect><rect width="147" height="2" x="416.5" y="386" rx="1" transform="rotate(165, 490, 387)" opacity="0.74"></rect><rect width="128" height="2" x="468" y="109" rx="1" transform="rotate(165, 532, 110)" opacity="0.89"></rect><rect width="162" height="2" x="371" y="202" rx="1" transform="rotate(165, 452, 203)" opacity="0.44"></rect><rect width="206" height="2" x="218" y="359" rx="1" transform="rotate(165, 321, 360)" opacity="0.75"></rect><rect width="174" height="2" x="256" y="214" rx="1" transform="rotate(165, 343, 215)" opacity="0.34"></rect><rect width="209" height="2" x="-37.5" y="29" rx="1" transform="rotate(165, 67, 30)" opacity="0.65"></rect><rect width="189" height="2" x="-11.5" y="600" rx="1" transform="rotate(165, 83, 601)" opacity="0.54"></rect><rect width="265" height="2" x="306.5" y="126" rx="1" transform="rotate(165, 439, 127)" opacity="0.20"></rect><rect width="56" height="2" x="495" y="709" rx="1" transform="rotate(165, 523, 710)" opacity="0.28"></rect><rect width="61" height="2" x="19.5" y="752" rx="1" transform="rotate(165, 50, 753)" opacity="0.52"></rect><rect width="174" height="2" x="32" y="425" rx="1" transform="rotate(165, 119, 426)" opacity="0.78"></rect><rect width="183" height="2" x="310.5" y="551" rx="1" transform="rotate(165, 402, 552)" opacity="0.54"></rect><rect width="102" height="2" x="260" y="604" rx="1" transform="rotate(165, 311, 605)" opacity="0.58"></rect><rect width="80" height="2" x="-3" y="529" rx="1" transform="rotate(165, 37, 530)" opacity="0.54"></rect><rect width="93" height="2" x="622.5" y="574" rx="1" transform="rotate(165, 669, 575)" opacity="0.37"></rect><rect width="41" height="2" x="612.5" y="520" rx="1" transform="rotate(165, 633, 521)" opacity="0.94"></rect><rect width="89" height="2" x="95.5" y="692" rx="1" transform="rotate(165, 140, 693)" opacity="0.60"></rect><rect width="242" height="2" x="112" y="100" rx="1" transform="rotate(165, 233, 101)" opacity="0.83"></rect><rect width="70" height="2" x="742" y="54" rx="1" transform="rotate(165, 777, 55)" opacity="0.24"></rect><rect width="103" height="2" x="569.5" y="278" rx="1" transform="rotate(165, 621, 279)" opacity="0.46"></rect><rect width="42" height="2" x="723" y="772" rx="1" transform="rotate(165, 744, 773)" opacity="0.10"></rect><rect width="113" height="2" x="548.5" y="713" rx="1" transform="rotate(165, 605, 714)" opacity="0.48"></rect><rect width="196" height="2" x="-64" y="411" rx="1" transform="rotate(165, 34, 412)" opacity="0.89"></rect><rect width="213" height="2" x="-63.5" y="661" rx="1" transform="rotate(165, 43, 662)" opacity="0.42"></rect><rect width="81" height="2" x="713.5" y="574" rx="1" transform="rotate(165, 754, 575)" opacity="0.92"></rect><rect width="57" height="2" x="303.5" y="293" rx="1" transform="rotate(165, 332, 294)" opacity="0.54"></rect><rect width="78" height="2" x="481" y="628" rx="1" transform="rotate(165, 520, 629)" opacity="0.48"></rect><rect width="121" height="2" x="108.5" y="767" rx="1" transform="rotate(165, 169, 768)" opacity="0.69"></rect><rect width="78" height="2" x="330" y="461" rx="1" transform="rotate(165, 369, 462)" opacity="0.39"></rect><rect width="103" height="2" x="269.5" y="775" rx="1" transform="rotate(165, 321, 776)" opacity="0.57"></rect><rect width="86" height="2" x="503" y="555" rx="1" transform="rotate(165, 546, 556)" opacity="0.51"></rect><rect width="72" height="2" x="538" y="323" rx="1" transform="rotate(165, 574, 324)" opacity="0.76"></rect><rect width="48" height="2" x="131" y="116" rx="1" transform="rotate(165, 155, 117)" opacity="0.38"></rect><rect width="77" height="2" x="-18.5" y="259" rx="1" transform="rotate(165, 20, 260)" opacity="0.12"></rect><rect width="125" height="2" x="442.5" y="768" rx="1" transform="rotate(165, 505, 769)" opacity="0.37"></rect><rect width="258" height="2" x="518" y="380" rx="1" transform="rotate(165, 647, 381)" opacity="0.55"></rect><rect width="146" height="2" x="656" y="370" rx="1" transform="rotate(165, 729, 371)" opacity="0.45"></rect><rect width="210" height="2" x="-68" y="177" rx="1" transform="rotate(165, 37, 178)" opacity="0.86"></rect><rect width="163" height="2" x="448.5" y="183" rx="1" transform="rotate(165, 530, 184)" opacity="0.53"></rect><rect width="48" height="2" x="567" y="600" rx="1" transform="rotate(165, 591, 601)" opacity="0.98"></rect><rect width="58" height="2" x="301" y="539" rx="1" transform="rotate(165, 330, 540)" opacity="0.56"></rect><rect width="40" height="2" x="570" y="222" rx="1" transform="rotate(165, 590, 223)" opacity="0.08"></rect><rect width="211" height="2" x="338.5" y="708" rx="1" transform="rotate(165, 444, 709)" opacity="0.94"></rect><rect width="84" height="2" x="464" y="331" rx="1" transform="rotate(165, 506, 332)" opacity="0.21"></rect><rect width="70" height="2" x="316" y="722" rx="1" transform="rotate(165, 351, 723)" opacity="0.60"></rect><rect width="167" height="2" x="32.5" y="188" rx="1" transform="rotate(165, 116, 189)" opacity="0.10"></rect><rect width="36" height="2" x="245" y="162" rx="1" transform="rotate(165, 263, 163)" opacity="0.45"></rect><rect width="132" height="2" x="498" y="671" rx="1" transform="rotate(165, 564, 672)" opacity="0.64"></rect><rect width="163" height="2" x="527.5" y="466" rx="1" transform="rotate(165, 609, 467)" opacity="0.14"></rect><rect width="129" height="2" x="706.5" y="276" rx="1" transform="rotate(165, 771, 277)" opacity="0.90"></rect><rect width="264" height="2" x="578" y="492" rx="1" transform="rotate(165, 710, 493)" opacity="0.59"></rect><rect width="257" height="2" x="548.5" y="66" rx="1" transform="rotate(165, 677, 67)" opacity="0.75"></rect><rect width="94" height="2" x="486" y="495" rx="1" transform="rotate(165, 533, 496)" opacity="0.47"></rect><rect width="133" height="2" x="382.5" y="641" rx="1" transform="rotate(165, 449, 642)" opacity="0.83"></rect><rect width="184" height="2" x="128" y="635" rx="1" transform="rotate(165, 220, 636)" opacity="0.43"></rect><rect width="151" height="2" x="5.5" y="474" rx="1" transform="rotate(165, 81, 475)" opacity="0.62"></rect><rect width="161" height="2" x="652.5" y="25" rx="1" transform="rotate(165, 733, 26)" opacity="0.13"></rect><rect width="47" height="2" x="728.5" y="217" rx="1" transform="rotate(165, 752, 218)" opacity="0.75"></rect><rect width="160" height="2" x="202" y="413" rx="1" transform="rotate(165, 282, 414)" opacity="0.76"></rect><rect width="98" height="2" x="361" y="416" rx="1" transform="rotate(165, 410, 417)" opacity="0.42"></rect><rect width="165" height="2" x="377.5" y="495" rx="1" transform="rotate(165, 460, 496)" opacity="0.34"></rect><rect width="64" height="2" x="246" y="472" rx="1" transform="rotate(165, 278, 473)" opacity="0.81"></rect><rect width="235" height="2" x="560.5" y="188" rx="1" transform="rotate(165, 678, 189)" opacity="0.81"></rect><rect width="81" height="2" x="562.5" y="771" rx="1" transform="rotate(165, 603, 772)" opacity="0.30"></rect><rect width="45" height="2" x="216.5" y="537" rx="1" transform="rotate(165, 239, 538)" opacity="0.32"></rect><rect width="68" height="2" x="148" y="411" rx="1" transform="rotate(165, 182, 412)" opacity="0.91"></rect><rect width="109" height="2" x="269.5" y="489" rx="1" transform="rotate(165, 324, 490)" opacity="0.87"></rect><rect width="67" height="2" x="744.5" y="485" rx="1" transform="rotate(165, 778, 486)" opacity="0.36"></rect><rect width="36" height="2" x="56" y="266" rx="1" transform="rotate(165, 74, 267)" opacity="0.85"></rect><rect width="187" height="2" x="331.5" y="33" rx="1" transform="rotate(165, 425, 34)" opacity="0.64"></rect><rect width="147" height="2" x="230.5" y="68" rx="1" transform="rotate(165, 304, 69)" opacity="0.35"></rect><rect width="31" height="2" x="603.5" y="654" rx="1" transform="rotate(165, 619, 655)" opacity="0.45"></rect><rect width="194" height="2" x="109" y="455" rx="1" transform="rotate(165, 206, 456)" opacity="0.74"></rect><rect width="54" height="2" x="671" y="317" rx="1" transform="rotate(165, 698, 318)" opacity="0.56"></rect><rect width="206" height="2" x="259" y="154" rx="1" transform="rotate(165, 362, 155)" opacity="0.67"></rect><rect width="86" height="2" x="634" y="274" rx="1" transform="rotate(165, 677, 275)" opacity="0.25"></rect><rect width="52" height="2" x="116" y="297" rx="1" transform="rotate(165, 142, 298)" opacity="0.61"></rect><rect width="211" height="2" x="640.5" y="652" rx="1" transform="rotate(165, 746, 653)" opacity="0.86"></rect><rect width="81" height="2" x="714.5" y="133" rx="1" transform="rotate(165, 755, 134)" opacity="0.51"></rect><rect width="165" height="2" x="66.5" y="243" rx="1" transform="rotate(165, 149, 244)" opacity="0.94"></rect><rect width="120" height="2" x="516" y="405" rx="1" transform="rotate(165, 576, 406)" opacity="0.97"></rect></g></svg>