<svg xmlns="http://www.w3.org/2000/svg" version="1.1" xmlns:xlink="http://www.w3.org/1999/xlink" xmlns:svgjs="http://svgjs.dev/svgjs" viewBox="0 0 800 800"><defs><linearGradient x1="50%" y1="0%" x2="50%" y2="100%" id="ssscribble-grad"><stop stop-color="hsl(206, 75%, 49%)" stop-opacity="1" offset="0%"></stop><stop stop-color="hsl(331, 90%, 56%)" stop-opacity="1" offset="100%"></stop></linearGradient></defs><g fill="none" stroke-width="1.5" stroke="url(#ssscribble-grad)" stroke-linecap="round"><path d="M1089.66 594.42C918.16 635.38 822.87 599.83 1059.16 505.95 993.67 450.43 787.9 419.37 606.33 458.08 559.51 577.57 654.05 759.24 796.32 926.79 907.14 979.61 917.08 881.75 839.77 693.68 703.77 588.14 562.64 673.41 449.28 908.74 359.04 1073.01 304.02 1000.19 269.01 761.12 244.8 646.05 220.52 803.74 187.66 1052.83 154.8 1070.75 114.92 837.18 77.15 647.31 50.19 715.59 45.43 942.69 78.72 1064.48 135.14 957.47 222.14 726.06 307.51 574.5 334.17 602.84 277.05 757 123.16 898.25 -62.17 941.99 -195.68 858.93 -183.06 710.37 -35.72 544.64 140.58 424.82 181.98 360.54 -87.74 343.27 -30.5 363.06 137.66 327.12 -54.85 294.26 -265.26 236.28 -264.36 160.45 43.46 59.57 -84.42 30.13 -220.65 178.06 -105.97 275.99 89.71 311.9 248.7 225.12 310.13 40.81 266.95 -152.31 175.05 -214.9 37.74 3.37 46.64 -81.42 132.86 -285.34 200.26 -108.2 254.16 118.72 287.02 100.89 319.88 -148.17 330.15 -299.27 324.72 -171.57 327.45 80.18 333.27 171.75 364.77 31.6 433.75 -179.64 550.85 -235.48 707.32 -95.75 849.86 126.53 940.22 263.38 921.86 253.66 805.94 129.19 649.21 -5.3 568.75 -74.16 649.9 -62.25 857.97 22.89 1042.98 135.36 1046.28 263.35 861.88 368.8 668.28 445.06 680.07 513.58 897.14 561.55 1089.66 594.42Q1089.66 594.42 1089.66 594.42" opacity="0.60"></path><path d="M1055.66 348.07C908.12 381.02 723.64 350.47 981.61 345.36 1017.76 386.08 888.75 476.78 694.41 621.07 544.93 774.13 516.95 899.11 591.43 928.48 773.36 764.73 803.52 668.05 668.3 970.78 557.47 1040.31 462.31 900.68 390.3 680.67 322.35 617.9 274.15 788.7 243.64 1018.83 207.43 944.21 246.44 726.07 324.21 996.03 368.03 1005.98 394.83 838.5 371.5 634.4 284.19 524.32 136.17 563.74 -33.63 690.37 -148.11 828.61 -156.31 890.11 -38.6 861.83 123.96 761.34 225.6 631.33 167.09 511.72 -26.58 402.3 -217.27 326.24 -240.8 275.67 -76.03 235.2 130.47 203.53 171.66 173.01 -106.27 128.54 12.14 100.8 219.72 167.59 144.06 234.33 -27.7 314.09 -158.95 367.58 -170.46 348.85 -53.83 243.56 115.94 65.34 272.7 -101.29 354.39 -176.92 360.5 -98.64 305.84 73.67 232.08 213.81 171.67 181.53 109.47 -119.46 131.39 63.26 174.69 134.89 205.2 -95.21 239.22 -259.88 282.93 -185.39 335.11 46.37 410.73 203.41 515.75 156.3 629.04 -35.52 753.06 -185.23 854.74 -175.11 895.66 -16.52 857.78 179.6 741.01 303.39 611.23 314.05 530.77 232.89 574.06 126.87 836.65 9.36 857.71 87 614.5 189.67 667.91 262.84 881.34 317.55 1055.66 348.07Q1055.66 348.07 1055.66 348.07" opacity="0.50"></path><path d="M1021.66 173.73C991.83 201.89 804.15 228.72 619.07 261 575.21 302.2 693.28 364.39 868.41 457.2 981.82 564.67 953.25 691.87 812.34 809.96 631.86 875.71 503.28 867.03 465.13 769.98 514.45 636.31 609.32 525.04 700.87 521.34 774.21 650.47 799.85 852.01 785.49 994.31 742.72 969.99 684.58 792.98 628.19 610 566.68 596.25 519.19 774.05 491.02 984.83 462.85 1019.98 455.35 847.26 463.73 637.33 467.01 572.25 473.9 695.35 467.87 883.15 433.41 989.14 361.39 928.9 244.64 757.09 109.68 573.78 -25.62 481.1 -111.86 498.95 -110.63 601.98 -15.44 719.92 135.7 799.7 247.29 830.1 250.59 800.26 116.54 735.38 -79.23 645.01 -213.32 556.56 -180.34 484.67 -6.13 412.67 175.83 361.88 205.66 333.71 -50.44 303.43 -26.01 357.56 227.2 417.74 245.27 433.81 133.75 417.29 -17.51 343.49 -126.45 220.31 -127.92 61.94 -35.27 -78.01 114.84 -132.81 260.81 -73.55 364.68 80.41 420.29 222.91 427.14 257.92 408.64 131.32 352.43 -146.69 307.12 120.44 338.16 168.89 366.32 -41.86 415.58 -214 484.47 -189.43 553.29 4.39 637.96 197.46 726.27 242.45 793.58 120.82 833.11 -55.46 820.91 -155.28 760.46 -122.27 654.92 22.38 541.72 192.98 485.99 326.95 520.85 376.07 659.12 353.73 839.72 279.05 976.5 198.24 979.07 139.57 754.52 90.11 762.69 131.47 1021.66 173.73Q1021.66 173.73 1021.66 173.73" opacity="0.49"></path><path d="M987.66 313.19C968 339.01 806.56 384.92 622.96 450.24 534.67 516.4 589.93 600.13 736.25 691.15 887.31 764.47 949.36 815.17 899.61 817.95 764.11 770.02 606.21 670.96 483.72 551.01 421.03 474.17 425.73 477.63 472.46 587.94 548.03 761.65 616.78 920.57 662.89 966.42 700.46 776.94 664.79 670.21 626.97 950.83 601.15 992.23 574.73 851.01 543.01 649.05 504.87 536.2 450.2 587.04 371.73 745.01 280.88 902.71 169.61 950.3 54.25 870.86 -32.27 708 -74.03 546.44 -45.18 448.1 43.45 431.98 170.74 485.4 279.36 566.89 302.22 658.63 217.01 720.94 47.03 746.84 -118.21 748.27 -188.16 724.43 -109.83 690.37 63.79 649.02 220 612.15 239.66 586.33 100.86 560.5 -86.75 546.96 -188.96 539.62 -143.3 524.98 18.84 501.86 193.1 455.7 289.38 385.07 265.59 280.25 156.74 148.72 17.62 27.43 -75.54 -63.07 -91.29 -80.82 -31.99 -16.34 78.27 114.59 200.6 250.57 320.87 303.16 410.64 232.45 468.5 55.84 503.76 -121.06 520.72 -186.64 532.57 -83.8 538.29 108.19 551.44 244.21 577.26 202.88 603.08 11.74 640.35 -161.96 683.31 -181.35 720.16 -37.48 750.18 160.31 759.65 277.2 746.54 250.3 699.29 114.54 618.81 -32.28 536.29 -115.73 463.08 -88.58 437.62 22.09 487.22 175.88 611 312 777 399.73 912.74 436.75 959.68 428.57 882.32 399.99 726.99 353.72 579.53 316.96 543.84 299.49 656.01 282.87 848.86 287.37 987.66 313.19Q987.66 313.19 987.66 313.19" opacity="0.47"></path><path d="M953.69 573.05C942.86 596.52 808.01 631.69 634.78 673.11 516.09 708.79 510.78 738.87 605.85 750.13 751.62 739.46 868.35 695.75 908.33 618.16 863.06 534.92 752.14 455.39 619.54 416.2 492.67 447.84 405.63 554.14 363.34 712.66 360.72 857.89 384.63 931.4 416.24 886.3 473.2 666.95 511.31 658.15 485.14 916.84 461.67 962.84 421.23 852.43 364.56 668.3 307.1 525.32 233.98 507.06 151.55 606.77 47.98 823.43 15.93 768.02 138.7 557.75 240.54 441.39 323.63 382.63 344.47 376.05 280.04 412.58 142.27 466.62 -20.71 516.41 -132.98 567.81 -141.03 598.64 -31.39 608.33 132.77 614.09 262.86 603.98 273.69 580.51 152 557.04 -20.32 521.31 -138.98 471.28 -143.42 417.33 -31.91 343.8 130.76 251.73 272.65 161.26 332.83 68.56 303.34 -4.13 204.07 -33.73 88.05 -8.67 -0.11 76.91 -44.4 188.62 -29.72 296.41 27.98 344.34 117.51 294.46 214.44 154.75 301.86 -19.78 386.3 -136.69 451.77 -131.8 499.66 2.11 543.46 177.19 575.93 282.84 599.41 236.84 629.56 -19.46 621.72 16.5 566.58 259.74 519.84 322.04 461.56 269.58 408.19 148.79 386.65 14.71 405.65 -63.75 480.68 -64.62 599.61 5.32 743.46 118.54 867.18 237.96 921.14 351.73 882.03 434.1 757.37 485.44 611.89 514.86 513.72 527.47 527.17 536.06 654.86 538.9 831.94 549.57 953.66 573.04Q953.69 573.05 953.69 573.05" opacity="0.25"></path><path d="M919.4 592.77C916.75 613.89 808.48 624.43 652.92 622.03 518.62 615.97 462.71 591.48 496.9 547.23 602.4 500.68 727.02 443.31 822.67 390.34 866.46 366.93 843.23 380.92 769.54 447.62 661.59 557.69 549.27 695.92 452.85 822.65 373.23 889.77 321.72 871.51 292.39 765.31 279.11 622.2 274.7 503 269.91 476.33 268.9 565.81 259.6 730.98 238.47 882.73 217.35 931.64 185.4 850.35 146.57 691.58 111.52 537.02 77.51 463.41 54.17 493.5 46.9 606.88 63.62 741.1 110.68 837.81 174.54 869.58 256.54 824.77 336.79 728.61 382.8 603.55 380.98 486.72 315.19 398.03 197.55 337.65 53.98 310.62 -66.99 305.01 -116.67 316.87 -72.78 331.61 53.36 339.03 200.76 349.25 304.75 345.33 307.4 324.21 201.72 303.09 47.32 265.76 -78.1 215.71 -122.66 168.45 -65.88 115.28 60.27 66.8 208.69 35.8 322.97 28.02 373.1 55.83 353.61 111.94 283.01 198.45 193.81 295.82 102.32 364.31 39.96 384.09 13.95 330.36 18.49 211.66 51.65 58.5 99.57 -70.37 160.33 -115.97 219.47 -54.43 268.99 91.96 319.88 242.59 357.1 319.63 378.23 270.78 386.83 7.88 327.29 341.68 356.12 315.18 414.69 210.45 507.39 97.27 626.56 14.88 743.45 -24.13 839.09 -7.79 880.59 48.16 852.45 133.69 757.11 225.85 624.18 309.01 513.51 389.87 468.75 452.79 521.45 498.69 655.04 540.93 813.73 571.64 919.4 592.77Q919.4 592.77 919.4 592.77" opacity="0.21"></path><path d="M885.68 345.11C888.61 363.88 804.77 366.84 672.05 356.3 492.68 338.67 519.88 307.35 667.87 342.45 759.65 401.37 811.95 491.08 819.32 604.38 786.42 715.23 722.54 807.77 644.75 852.46 556.52 833.52 475.51 750.36 408.32 624.87 346.59 508.45 299.63 441.41 264.94 460.51 233.21 565.06 208.77 716.65 189.99 848.89 171.21 898.96 158.98 844.12 155.3 715.52 154.58 566.57 167.38 458.32 196.56 424.81 231.21 470.85 281.31 569.73 340.59 680.12 389.44 775.21 426.37 821.97 434.65 816.32 402.67 764.94 328.11 683.21 216.77 592.2 95.11 495.98 -13.47 414.06 -74.54 350.95 -66.95 297.85 11.61 260.62 139.1 233.93 264.57 211.2 344.61 191.86 341.68 173.08 252.23 154.31 117.86 136.98 -6.3 124.29 -79.94 115.57 -74.88 118.64 0.13 139.2 120.91 169.76 248.2 220.76 348.8 288.04 406.87 350.11 414.19 404.88 382.27 431.65 319.37 412.69 249.19 343.67 187.88 229.03 105.62 16.65 153.13 329.44 183.03 304.89 201.81 172.65 216.24 24.86 229.13 -72.43 245.54 -84.29 267.16 -6.56 300.32 123.61 344.99 262.86 408.51 362.87 492 401.36 582.25 376.22 679.39 305.95 766.91 219.71 823.46 131.02 838.42 68.26 799.92 38.29 718.89 35.49 608.44 59.69 501.42 98.82 440.14 150.58 445.73 202.48 526.59 246.66 657.99 292.61 796.18 326.32 885.65 345.1Q885.68 345.11 885.68 345.11" opacity="0.89"></path><path d="M851.65 173.5C797.95 206.36 564.78 240.79 401.85 308.59 432.23 412.39 590.69 579.78 722.42 752.08 772.99 813.53 718.2 706.12 627.54 490.38 513.94 405.2 430.92 565.8 398.05 814.88 375.4 717.49 477.72 514.52 385.83 737.81 211.04 773.19 17.73 692.43 -36.73 582.94 102.1 455.78 321.95 369.34 375.65 336.48 183.13 303.62 -20.65 327.45 -28.62 397.66 149.49 450.2 355.1 479.67 456.61 401.23 439.69 220.53 359.46 14.35 295.46 -29.44 233.49 139.58 221.35 356.71 254.21 338.88 287.08 89.8 361.82 -57.47 480.75 51.79 601.69 291.61 733.21 433.87 793.19 415.49 734.75 286.26 563.99 170.16 409.96 123.31 442.02 112.46 659.13 140.64 851.65 173.5Q851.65 173.5 851.65 173.5" opacity="0.20"></path><path d="M817.69 315.96C787.8 344.13 602.46 417.08 421.5 527.73 351.64 631.4 413.21 733 525.56 763.43 674.04 615.07 656.79 480.87 608.43 780.84 580.26 815.99 566.99 645.91 545.19 443.02 495.22 350.71 393.65 411.15 237.06 533.49 87.79 660.66 -3.64 714.5 45.56 706.4 205.88 665.52 379.8 616.19 409.69 588.02 253.35 559.85 60.76 555.52 -14.56 547.59 61.33 506.88 230.33 409.08 385.01 245 489.07 85.74 519.24 -4.57 514.98 67.05 486.35 249.28 475.72 407.97 503.89 372.89 532.04 162.13 596.33 -4.89 673.78 10.34 726.85 179.46 740.66 369.92 673.54 474.93 555.79 481.41 416.65 423.77 361.36 368.92 457.31 307.08 661.29 287.79 817.66 315.95Q817.69 315.96 817.69 315.96" opacity="0.95"></path><path d="M783.69 574.96C772.87 598.43 639.76 643.43 475.23 688.82 349.11 711.79 310.47 694.22 340.78 612.2 420.4 501.12 497.45 380.4 542.91 329.65 581.67 401.73 587.19 575.42 563.72 746.84 540.25 792.84 490.01 684.06 410.57 511.01 324.43 362.64 210.75 309.04 100.37 337.17 39.29 423.12 53.04 507.55 161.95 556.95 309.28 597.22 432.87 602.16 443.69 578.69 322 555.22 156.12 505.55 45.88 424.61 28.86 334.54 109.07 213.48 229.54 96.76 363.81 37.86 465.95 66.55 528.78 197.69 574.59 353.54 602.84 452.82 626.31 406.89 649.79 235.48 666.26 71.27 661.14 16.37 638.99 84.3 573.5 229.92 469.99 371.77 380.28 484.57 324.94 538.77 359.14 556.47 486.56 551.76 661.95 551.48 783.66 574.95Q783.69 574.96 783.69 574.96" opacity="0.17"></path><path d="M749.56 591.24C752.74 610.02 669.97 608.84 545.97 582.26 415.64 547.32 320.56 479.89 272.48 392.69 264.08 326.61 281.39 292.49 300.36 326.41 327.88 430.38 337 580.53 318.22 712.79 299.44 762.91 254.55 708.58 194.48 589.66 142.97 448.05 96.36 336.73 80.15 276.59 103.61 261.26 178.78 277.69 295.35 298.35 405.58 328.99 480.74 340.25 477.56 321.47 387.92 302.69 258.87 255.66 146.43 192.48 73.32 139.28 65.56 93.54 106.86 84.26 183.09 119.79 267.44 211.19 336.73 339.03 406.6 444.19 453.28 490.91 472.06 440.79 490.84 308.53 479.94 165.99 442.61 75.78 405.86 55.63 350.82 109.67 299.2 200.36 282.51 312.17 310.18 408.91 397.06 476.39 523.26 535.51 659.92 572.46 749.56 591.24Q749.56 591.24 749.56 591.24" opacity="0.57"></path><path d="M715.69 342.3C685.8 370.47 505.17 310.95 349.21 249.98 241.38 288.85 201.27 468.07 173.11 678.84 144.94 713.99 134.05 549.08 204.96 378.95 324.01 250.69 481.8 201.36 511.69 173.19 355.33 145.02 176.79 143.35 111.71 234.7 131.29 367.91 201.12 509.99 229.29 474.84 257.46 264.07 238.62 107.68 255.96 105.73 357.95 203.62 559.33 314.13 715.69 342.3Q715.69 342.3 715.69 342.3" opacity="0.95"></path><path d="M681.66 173.32C599.9 210.88 342.99 359.64 305.44 644.83 267.88 639.62 463.9 376.98 545.66 339.42 316.47 301.87 158.27 503.62 195.83 508.83 233.38 223.64 452.47 135.77 681.66 173.32Q681.66 173.32 681.66 173.32" opacity="0.12"></path></g></svg>