<svg xmlns="http://www.w3.org/2000/svg" version="1.1" xmlns:xlink="http://www.w3.org/1999/xlink" xmlns:svgjs="http://svgjs.dev/svgjs" viewBox="0 0 800 800" opacity="0.61"><defs><linearGradient x1="50%" y1="0%" x2="50%" y2="100%" id="wwwhirl-grad"><stop stop-color="hsl(206, 75%, 49%)" stop-opacity="1" offset="45%"></stop><stop stop-color="hsl(331, 90%, 56%)" stop-opacity="1" offset="100%"></stop></linearGradient></defs><g stroke-width="1" stroke="url(#wwwhirl-grad)" fill="none" stroke-linecap="round"><path d="M-672.0000001634871 607.6850890390442C-633.7142869209757 486.36723520183625 -595.4285736784643 167.63867245792892 -518.8571471934415 122.41367369021233C-442.2857207084188 77.18867492249576 -442.2857207084188 412.4279515022361 -365.714294223396 426.7850939681779C-289.14286773837324 441.14223643411964 -289.1428677383732 146.10295875901625 -212.57144125335049 179.84224355397942C-136.00001476832767 213.58152834894258 -136.00001476832756 586.8672324634286 -59.42858828330486 561.7422331480304C17.14283820171795 536.6172338326323 17.142838201717836 39.142247387750075 93.71426468674065 79.34224629238703C170.28569117176346 119.54224519702399 170.28569117176346 704.5958006841512 246.85711765678627 722.5422287665784C323.4285441418092 740.4886568490057 323.42854414180897 184.86724341705906 399.9999706268318 151.1279586220959C476.5713971118546 117.38867382713272 476.57139711185437 565.331518764516 553.1428235968774 587.5850895867258C629.7142500819002 609.8386604089354 629.7142500819002 256.65295574676793 706.285676566923 240.14224191093487C782.8571030519456 223.63152807510184 782.8571030519458 499.2886634211838 859.4285295369687 521.5422342433935C935.9999560219912 543.7958050656033 935.9999560219912 312.64581136394077 1012.571382507014 329.15652519977385C1089.1428089920366 345.6672390356069 1089.1428089920369 586.1493753401315 1165.7142354770597 587.5850895867258C1242.2856619620823 589.0208038333199 1242.2856619620827 360.74223862484575 1318.8570884471053 334.89938218615055C1395.428514932128 309.05652574745534 1433.7142281746396 446.8850934204964 1471.9999414171507 484.213663831945 " transform="rotate(16, 400, 400)"></path><path d="M-638.5000002775874 601.1949919954046C-601.4107155739046 483.66832109060937 -564.3214308702217 174.9000259324492 -490.1428614628558 131.08830837622378C-415.96429205549 87.27659081999833 -415.96429205549 412.03964000662177 -341.7857226481242 425.94812177050284C-267.6071532407584 439.85660353438396 -267.60715324075835 154.03730328662758 -193.4285838333925 186.72223543174812C-119.25001442602672 219.4071675768687 -119.25001442602661 581.0276934377771 -45.07144501866094 556.6878503509852C29.107124388705074 532.3480072641933 29.107124388704847 50.41911414571345 103.28569379607075 89.3628630845805C177.46426320343664 128.30661202344754 177.46426320343664 695.077243901602 251.64283261080243 712.4628461064533C325.8214020181683 729.8484483113047 325.8214020181681 191.59020404910652 399.9999714255341 158.90527190398595C474.1785408328999 126.22033975886538 474.17854083289967 560.1649707919553 548.3571102402657 581.723117525971C622.5356796476315 603.2812642599868 622.5356796476315 261.13261286851196 696.7142490549973 245.1378588400487C770.892818462363 229.14310481158546 770.8928184623633 496.18595467810235 845.071387869729 517.744101412118C919.2499572770948 539.3022481461337 919.2499572770948 315.3756917476482 993.4285266844604 331.37044577611147C1067.6070960918262 347.36519980457473 1067.6070960918264 580.3322693495829 1141.7856654991924 581.723117525971C1215.964234906558 583.1139657023591 1215.9642349065582 361.96910565664984 1290.1428043139238 336.9338384816639C1364.32137372129 311.8985713066779 1401.4106584249726 445.41999623993644 1438.4999431286556 481.5820488260272 " transform="rotate(15.5, 400, 400)"></path><path d="M-604.9999393565315 594.7048033990307C-569.107083191677 480.9693154266481 -533.2142270268226 182.16128785423513 -461.42851469711377 139.76285150950082C-389.6428023674049 97.36441516476654 -389.6428023674049 411.65123695827305 -317.8570900376961 425.1110580200935C-246.07137770798727 438.5708790819139 -246.07137770798715 161.97155626150447 -174.2856653782784 193.60213575678245C-102.49995304856952 225.23271525206042 -102.49995304856952 575.188062859391 -30.71424071886065 551.6333760012053C41.07147161084822 528.0786891430196 41.07147161084811 61.69588935094245 112.85718394055698 99.3833883240396C184.64289627026585 137.07088729713675 184.64289627026585 685.5585955663183 256.42860859997484 702.3833718935939C328.2143209296837 719.2081482208694 328.2143209296836 198.3130731284196 400.00003325939247 166.68249363314163C471.78574558910145 135.05191413786366 471.7857455891012 554.9983312666604 543.5714579188102 575.861053912482C615.357170248519 596.7237765583036 615.357170248519 265.6121784375216 687.142882578228 250.13338421642817C758.9285949079367 234.6545899953347 758.9285949079369 493.0831543822866 830.7143072376459 513.9458770281082C902.5000195673545 534.8085996739298 902.5000195673545 318.1054805786212 974.2857318970632 333.58427479971465C1046.0714442267722 349.06306902080814 1046.0714442267724 574.5150718063 1117.857156556481 575.861053912482C1189.6428688861897 577.2070360186641 1189.6428688861902 363.19588113571956 1261.428581215899 338.96820322444285C1333.2142935456075 314.74052531316613 1369.1071497104622 443.954807506642 1405.0000058753167 478.95034226737505 " transform="rotate(15, 400, 400)"></path><path d="M-571.4999394706318 588.2146453202348C-536.8035118446059 478.2703402802651 -502.1070842185799 189.42258029359914 -432.714228966528 148.437425160356C-363.3213737144761 107.45227002711286 -363.3213737144761 411.2628644275025 -293.9285184624243 424.27402478726225C-224.53566321037238 437.285185147022 -224.53566321037232 169.90583975395955 -155.14280795832047 200.4820665993949C-85.74995270626857 231.05829344483027 -85.74995270626846 569.3484627985832 -16.357097454216614 546.5789321690037C53.035757797835345 523.8094015394242 53.03575779783512 72.97269507374958 122.42861304988708 109.40394408107682C191.82146830193903 145.83519308840405 191.82146830193903 676.039977748613 261.214323553991 692.3039281983126C330.60717880604295 708.5678786480124 330.6071788060427 205.03597272531084 400.00003405809457 174.45974587987547C469.39288931014676 143.8835190344401 469.39288931014653 549.8317222589436 538.7857445621985 569.9990208165711C608.1785998142504 590.1663193741988 608.1785998142504 270.0917745241095 677.5714550663024 255.1289401103858C746.9643103183541 240.1661056966621 746.9643103183544 489.9803846040489 816.3571655704063 510.14768316167647C885.750020822458 530.314981719304 885.750020822458 320.8352999271724 955.1428760745098 335.7981343408961C1024.5357313265615 350.7609687546198 1024.535731326562 568.6979047805953 1093.9285865786137 569.9990208165711C1163.3214418306654 571.3001368525472 1163.3214418306657 364.4226871323675 1232.7142970827176 341.00259848480005C1302.1071523347694 317.58250983723246 1336.8035799607953 442.48964929092585 1371.500007586821 476.31866622630116 " transform="rotate(14.5, 400, 400)"></path><path d="M-537.9999395847321 581.7244567238608C-504.4999404975347 475.5713346163039 -470.9999414103372 196.68384221538506 -403.9999432359423 157.11196829363305C-336.99994506154735 117.54009437188105 -336.99994506154735 410.87446137915384 -269.9999468871524 423.4369610368529C-202.9999487127575 435.9994606945519 -202.99994871275743 177.84009272883648 -135.9999505383625 207.36196692442923C-68.99995236396762 236.883841120022 -68.99995236396762 563.5088322201973 -1.9999541895726907 541.5244578192239C65.00004398482236 519.5400834182506 65.00004398482224 84.24947027897858 132.00004215921717 119.42446932053592C199.00004033361222 154.59946836209326 199.00004033361222 666.5213294133295 266.00003850800704 682.2244539854532C333.0000366824021 697.927578557577 333.00003668240197 211.75884180462393 400.000034856797 182.23696760903115C467.00003303119183 152.71509341343838 467.00003303119183 544.6650827336487 534.0000312055868 564.1369572030821C601.0000293799817 583.6088316725157 601.0000293799817 274.57134009311915 668.0000275543766 260.12446548676525C735.0000257287716 245.67759088041134 735.0000257287718 486.87758430823305 802.0000239031667 506.34945877766654C869.0000220775617 525.8213332471001 869.0000220775617 323.5650887581454 936.0000202519564 338.01196336449937C1003.0000184263511 352.4588379708532 1003.0000184263513 562.8807072373122 1070.0000166007464 564.1369572030821C1137.0000147751412 565.3932071688521 1137.0000147751414 365.64946261143723 1204.000012949536 343.03696322757895C1271.0000111239312 320.4244638437207 1304.5000102111285 441.0244605576315 1338.000009298326 473.68695966764903 " transform="rotate(14, 400, 400)"></path><path d="M-504.49993969883246 575.2343291626432C-472.19636915046345 472.872389987499 -439.8927986020945 203.94516517232722 -375.28565750535654 165.78657246206637C-310.6785164086185 127.62797975180551 -310.6785164086185 410.4861193659614 -246.07137531188062 422.59995832159973C-181.46423421514265 434.7137972772382 -181.4642342151426 185.7744067388697 -116.85709311840463 214.24192828461983C-52.24995202166667 242.70944983037003 -52.249952021666616 557.6692626769676 12.357189075071346 536.4700445046005C76.96433017180937 515.2708263322334 76.96433017180914 95.52630651936383 141.57147126854727 129.44505559515125C206.17861236528518 163.3638046709387 206.17861236528518 657.0027421132022 270.7857534620233 672.1450408077501C335.3928945587613 687.2873395022981 335.3928945587611 218.48177191909326 400.0000356554991 190.0142503733431C464.60717675223725 161.54672882759294 464.607176752237 539.4985042435101 529.214317848975 558.2749546247495C593.821458945713 577.051405005989 593.821458945713 279.05096669728516 658.4286000424511 265.12005189830097C723.035741139189 251.18913709931687 723.0357411391892 483.77484504757354 787.6428822359271 502.551295428813C852.250023332665 521.3277458100524 852.250023332665 326.2949386242748 916.8571644294029 340.22585342325885C981.4643055261408 354.15676822224304 981.4643055261411 557.0635707291856 1046.0714466228787 558.2749546247495C1110.6785877196166 559.4863385203134 1110.678587719617 366.8762991256633 1175.285728816355 345.0713890055142C1239.8928699130927 323.26647888536513 1272.1964404614619 439.5593328594935 1304.5000110098306 471.0553141441532 " transform="rotate(13.5, 400, 400)"></path><path d="M-470.9999398129328 568.7441405662692C-439.8927978033922 470.1733843235378 -408.7856557938518 211.20642709411314 -346.57137177477074 174.46111559534341C-284.3570877556897 137.71580409657372 -284.3570877556897 410.0977163176127 -222.14280373660876 421.7628945711904C-159.92851971752776 433.42807282476804 -159.9285197175277 193.7086597137466 -97.71423569844671 221.12182860965416C-35.49995167936572 248.53499750556173 -35.499951679365665 551.8296320985817 26.714332339715384 531.4155701548207C88.92861635879638 511.00150821105973 88.92861635879626 106.80308172459283 151.14290037787725 139.46558083461036C213.35718439695836 172.12807994462787 213.35718439695836 647.4840937779186 275.57146841603935 662.0655665948907C337.78575243512046 676.6470394118629 337.78575243512034 225.20464099840638 400.00003645420134 197.7914721024988C462.21432047328244 170.37830320659123 462.2143204732822 534.331864718215 524.4286044923633 552.4128910112604C586.6428885114444 570.4939173043059 586.6428885114444 283.5305322662948 648.8571725305255 270.11557727468045C711.0714565496064 256.70062228306614 711.0714565496066 480.67204475175765 773.2857405686875 498.7530710448031C835.5000245877684 516.8340973378486 835.5000245877684 329.0247274552478 897.7143086068493 342.4396824468621C959.9285926259302 355.85463743847646 959.9285926259306 551.2463731859027 1022.1428766450115 552.4128910112604C1084.3571606640924 553.5794088366183 1084.3571606640926 368.103074604733 1146.5714446831737 347.1057537482932C1208.7857287022546 326.10843289185334 1239.892870711795 438.0941441261991 1271.0000127213355 468.42360758550114 " transform="rotate(13, 400, 400)"></path><path d="M-437.4999399270331 562.2540435226297C-407.58922645632106 467.47447021231096 -377.678512985609 218.46778056863343 -317.857086044185 183.13575028135486C-258.035659102761 147.8037199940763 -258.035659102761 409.70940482199836 -198.2142321613369 420.9259223735154C-138.39280521991287 432.1424399250324 -138.39280521991287 201.64300424135791 -78.5713782784888 228.0018204874229C-18.749951337064772 254.36063673348784 -18.749951337064715 545.99009307293 41.07147560435931 526.3611873577753C100.89290254578339 506.73228164262053 100.89290254578327 118.0799484825562 160.71432948720735 149.48619762680383C220.53575642863143 180.89244677105145 220.53575642863143 637.9655369953695 280.3571833700555 651.9861839347658C340.1786103114796 666.006830874162 340.1786103114795 231.92760163045384 400.00003725290367 205.56878538438886C459.82146419432763 179.2099691383239 459.8214641943275 529.1653167456545 519.6428911357516 546.5509189505059C579.4643180771759 563.9365211553572 579.4643180771759 288.01018938803884 639.2857450185998 275.1111942037943C699.1071719600238 262.21219901954976 699.1071719600241 477.5693360086763 758.9285989014479 494.95493821352767C818.750025842872 512.3405404183791 818.750025842872 331.75460783895517 878.5714527842958 344.6536030231997C938.3928797257199 357.5525982074443 938.3928797257199 545.4292671953542 998.2143066671442 546.5509189505059C1058.035733608568 547.6725707056576 1058.0357336085683 369.32994163653717 1117.8571605499922 349.1402100438065C1177.6785874914162 328.9504784510759 1207.5893009621282 436.62904694563923 1237.50001443284 465.79199257958345 " transform="rotate(12.5, 400, 400)"></path><path d="M-403.9999400411334 555.7637938910995C-375.2856551092499 464.77540351319357 -346.57137017736636 225.72898145526307 -289.1428003135992 191.81023237947565C-231.71423044983214 157.89148330368823 -231.71423044983214 409.32094073849345 -174.2856605860651 420.0887975879498C-116.85709072229804 430.8566544374061 -116.85709072229798 209.5771961810786 -59.428520858530874 234.88165977730097C-1.9999509947638217 260.18612337352334 -1.9999509947637648 540.1504014593878 55.428618869003344 521.3066519728393C112.8571887327704 502.46290248629066 112.85718873277028 129.35666265262898 170.28575859653745 159.50666183110667C227.7143284603046 189.6566610095844 227.7143284603046 628.4468276249297 285.14289832407167 641.9066486867501C342.57146818783883 655.3664697485706 342.5714681878387 238.65040967461067 400.00003805160577 213.3459460783883C457.42860791537294 188.04148248216595 457.4286079153728 523.9986161852033 514.8571777791399 540.6887943018606C572.2857476429072 557.378972418518 572.2857476429072 292.48969392189235 629.7143175066742 280.1066585450175C687.1428873704413 267.72362316814275 687.1428873704415 474.46647467770424 744.5714572342083 491.1566527943615C802.0000270979756 507.84683091101886 802.0000270979756 334.48433563477204 859.4285969617424 346.86737101164675C916.8571668255092 359.2504063885216 916.8571668255097 539.612008616915 974.2857366892767 540.6887943018606C1031.7143065530436 541.7655799868062 1031.714306553044 370.5566560804507 1089.142876416811 351.17451375142934C1146.571446280578 331.7923714224079 1175.2857312124618 435.16379717718866 1204.000016144345 463.1602249857751 " transform="rotate(12, 400, 400)"></path><path d="M-370.49994015523373 549.273712106249C-342.98208376217866 462.07650466075575 -315.4642273691236 232.99035018857245 -260.42851458301345 200.48488232427616C-205.39280179690334 167.97941445997986 -205.39280179690334 408.9326445016682 -150.35708901079323 419.25184064906387C-95.32137622468315 429.5710367964595 -95.32137622468309 217.51155596747896 -40.28566343857295 241.76166691385873C14.750049347537129 266.0117778602385 14.750049347537185 534.3108776925253 69.78576213364727 516.2522844345829C124.82147491975752 498.1936911766405 124.82147491975729 140.63354466938142 179.85718770586743 169.52729388208923C234.89290049197768 198.42104309479703 234.89290049197768 618.9282861011695 289.9286132780878 631.8272812854142C344.96432606419796 644.7262764696587 344.96432606419785 245.37338556544722 400.000038850308 221.12327461906744C455.03575163641824 196.87316367268767 455.035751636418 518.8320834714318 510.07146442252815 534.8268374998952C565.1071772086384 550.8215915283583 565.1071772086384 296.96936630242544 620.1428899947487 285.10229073292044C675.1786027808587 273.23521516341543 675.1786027808589 471.36378119341185 730.2143155669689 487.3585352218751C785.250028353079 503.3532892503384 785.250028353079 337.2142312772685 840.285741139189 349.0813068467735C895.321453925299 360.9483824162785 895.3214539252992 533.7949178851555 950.3571667114093 534.8268374998952C1005.3928794975193 535.8587571146346 1005.3928794975195 371.78353837104385 1060.4285922836295 353.20898530573174C1115.4643050697396 334.6344322404195 1142.9821614627947 433.69871525541777 1170.5000178558496 460.5286252386465 " transform="rotate(11.5, 400, 400)"></path><path d="M-336.99994026933405 542.7834624747188C-310.67851241510743 459.37743796163835 -284.3570845608809 240.2515510752021 -231.7142288524277 209.15936442239695C-179.07137314397454 178.0671777695918 -179.07137314397454 408.54418041816325 -126.42851743552137 418.41471586349826C-73.78566172706826 428.2852513088332 -73.7856617270682 225.44574790719966 -21.14280601861509 248.6415062037368C31.50004968983808 271.837264500274 31.500049689838136 528.4711860789831 84.14290539829125 511.1977490496469C136.78576110674442 493.92431202031077 136.7857611067443 151.91025883945417 189.42861681519753 179.54775808639207C242.07147252365075 207.18525733332996 242.07147252365075 609.4095767307299 294.71432823210387 621.7477460373987C347.3571839405571 634.0859153440672 347.357183940557 252.0961936096041 400.0000396490103 228.9004353130669C452.64289535746343 205.70467701652973 452.6428953574632 513.6653829109807 505.28575106591654 528.9647128512498C557.9286067743698 544.2640427915192 557.9286067743698 301.4488708362789 610.5714624828229 290.09775507414366C663.2143181912761 278.7466393120085 663.2143181912761 468.26091986243983 715.8571738997293 483.560249802709C768.5000296081823 498.85957974297827 768.5000296081823 339.94395907308524 821.1428853166356 351.2950748352205C873.7857410250886 362.6461905973557 873.7857410250888 527.9776593067163 926.4285967335418 528.9647128512498C979.071452441995 529.9517663957834 979.071452441995 373.0102528149574 1031.7143081504482 355.24328901335446C1084.3571638589015 337.4763252117515 1110.6785917131278 432.2334654869672 1137.0000195673545 457.8968576448381 " transform="rotate(11, 400, 400)"></path><path d="M-303.49994038343436 536.2933349135012C-278.37494106803626 456.6784933328334 -253.24994175263816 247.51287403214428 -202.99994312184197 217.83396859083027C-152.74994449104574 188.15506314951625 -152.74994449104574 408.15583840497084 -102.49994586024957 417.57771314824515C-52.24994722945337 426.9995878915194 -52.24994722945337 233.38006191723284 -1.99994859865717 255.52146756392742C48.25005003213903 277.66287321062197 48.250050032139086 522.6316165357534 98.50004866293523 506.14333573502347C148.75004729373148 489.6550549342934 148.75004729373143 163.18709507983942 199.00004592452763 189.5683443610074C249.25004455532383 215.94959364217542 249.25004455532383 599.8909894306025 299.50004318612014 611.6683328596955C349.75004181691634 623.4456762887883 349.7500418169162 258.8191237240734 400.0000404477124 236.67771807737884C450.2500390785086 214.53631243068426 450.2500390785086 508.498804420842 500.5000377093048 523.1027102729172C550.750036340101 537.7066161249923 550.750036340101 305.92849744044486 601.0000349708972 295.0933414856794C651.2500336016934 284.258185530914 651.2500336016935 465.15818060178026 701.5000322324897 479.76208645385543C751.7500308632857 494.36599230593055 751.7500308632857 342.6738089392146 802.0000294940819 353.50896489397996C852.2500281248781 364.34412084874543 852.2500281248783 522.1605227985897 902.5000267556743 523.1027102729172C952.7500253864705 524.0448977472446 952.7500253864707 374.2370893291834 1003.0000240172669 357.2777147912897C1053.250022648063 340.31834025339595 1078.3750219634612 430.7683377888292 1103.500021278859 455.2652121213423 " transform="rotate(10.5, 400, 400)"></path><path d="M-269.9999404975347 529.8031768347053C-246.07136972096504 453.9795181864504 -222.14279894439545 254.7741664715083 -174.2856573912562 226.50854224168546C-126.42851583811694 198.24291801186257 -126.42851583811694 407.7674658742003 -78.57137428497774 416.7406799154139C-30.714232731838536 425.7138939566275 -30.71423273183848 241.3143454096879 17.14290882130075 262.4013984065399C65.00005037443998 283.4884514033919 65.00005037444004 516.7920164749455 112.85719192757927 501.0888919028218C160.71433348071855 485.385767330698 160.71433348071838 174.46390080264655 208.57147503385772 199.58890011804465C256.428616586997 224.71389943344272 256.428616586997 590.3723716128972 304.2857581401363 601.5888891644142C352.14289969327547 612.8054067159312 352.14289969327535 265.54202332096463 400.00004124641464 244.45497032411265C447.8571827995539 223.36791732726067 447.8571827995538 503.3321954131252 495.7143243526931 517.2406771770063C543.5714659058324 531.1491589408874 543.5714659058324 310.40809352703263 591.4286074589717 300.088897379637C639.2857490121108 289.76970123224135 639.285749012111 462.0554108235426 687.1428905652502 475.9638925874237C735.0000321183893 489.87237435130476 735.0000321183893 345.40362828776574 782.8571736715285 355.7228244351614C830.7143152246676 366.04202058255703 830.7143152246679 516.3433557728849 878.571456777807 517.2406771770063C926.4285983309462 518.1379985811277 926.4285983309464 375.4638953258313 974.2857398840856 359.3121100516468C1022.1428814372248 343.16032477746234 1046.0714522137946 429.30317957311297 1070.000022990364 452.6335360802683 " transform="rotate(10, 400, 400)"></path><path d="M-236.499940611635 523.3130492734876C-213.76779837389387 451.2805735576454 -191.03565613615274 262.0354894284505 -145.57137166067042 235.18314641011875C-100.10708718518816 208.33080339178701 -100.10708718518816 407.3791238610079 -54.642802709705904 415.90367720016076C-9.178518234223645 424.42823053931374 -9.178518234223588 249.2486594197211 36.28576624125867 269.2813597667305C81.75005071674093 289.31406011373986 81.75005071674099 510.9524469317159 127.21433519222325 496.0344785881983C172.6786196677055 481.1165102446806 172.67861966770545 185.7407370430318 218.14290414318776 209.60948639265996C263.6071886186701 233.47823574228818 263.6071886186701 580.8537843127699 309.07147309415234 591.5094759867111C354.5357575696346 602.1651676606522 354.5357575696346 272.264953435434 400.00004204511686 252.2322530884246C445.4643265205991 232.19955274141523 445.4643265205991 498.1656169229865 490.9286109960814 511.37867459867357C536.3928954715637 524.5917322743605 536.3928954715637 314.8877201311986 581.857179947046 305.0844837911727C627.3214644225282 295.2812474511469 627.3214644225284 458.9526715628831 672.7857488980106 472.16572923857007C718.2500333734928 485.3787869142571 718.2500333734928 348.133478153895 763.714317848975 357.9367144939209C809.1786023244572 367.73995083394675 809.1786023244574 510.52621926475825 854.6428867999396 511.37867459867357C900.1071712754219 512.2311299325888 900.1071712754219 376.6907318400573 945.5714557509043 361.3465358295821C991.0357402263865 346.0023398191068 1013.7678824641278 427.8380518749749 1036.5000247018686 450.0018905567725 " transform="rotate(9.5, 400, 400)"></path><path d="M-202.9999407257353 516.8229217122699C-181.46422702682264 448.5816289288405 -159.92851332791 269.2968123853926 -116.85708593008468 243.85775057855204C-73.78565853225936 218.4186887717115 -73.78565853225936 406.9907818478154 -30.714231134434073 415.0666744849077C12.357196263391245 423.14256712199995 12.357196263391302 257.18297342975427 55.428623661216534 276.16132112692105C98.50005105904188 295.13966882408783 98.50005105904194 505.1128773884862 141.57147845686723 490.9800652735748C184.64290585469257 476.84725315866336 184.64290585469251 197.01757328341705 227.7143332525178 219.63007266727533C270.78576065034304 242.2425720511336 270.78576065034304 571.3351970126425 313.8571880481685 581.430062809008C356.92861544599384 591.5249286053732 356.9286154459937 278.98788354990336 400.0000428438191 260.0095358527366C443.0714702416444 241.03118815556977 443.0714702416444 492.99903843284784 486.14289763946965 505.5166720203408C529.214325037295 518.0343056078339 529.214325037295 319.36734673536455 572.2857524351203 310.0800702027085C615.3571798329456 300.7927936700524 615.3571798329458 455.84993230222346 658.428607230771 468.3675658897165C701.5000346285963 480.8851994772095 701.5000346285963 350.8633280200243 744.5714620264215 360.1506045526804C787.6428894242467 369.43788108533647 787.6428894242472 504.7090827566316 830.7143168220721 505.5166720203408C873.7857442198974 506.32426128405 873.7857442198977 377.91756835428333 916.857171617723 363.3809616075173C959.9285990155481 348.84435486075125 981.4643127144609 426.3729241768368 1003.0000264133735 447.37024503327666 " transform="rotate(9, 400, 400)"></path><path d="M-169.49994083983563 510.33268733952883C-149.16065567975144 445.8825774885121 -128.82137051966728 276.5580285308114 -88.14280019949894 252.53224793546192C-47.46422987933056 228.5064673401125 -47.46422987933056 406.6023330230995 -6.785659559162241 414.22956495813116C33.89291076100608 421.8567968931627 33.892910761006135 265.117180628264 74.57148108117451 283.0411756755882C115.25005140134283 300.9651707229124 115.25005140134289 499.2732010337331 155.9286217215112 485.92554514742784C196.60719204167953 472.57788926112255 196.60719204167947 208.29430271227886 237.2857623618479 229.65055213036723C277.9643326820163 251.0068015484556 277.9643326820163 561.816502900992 318.64290300218454 571.3505428197814C359.321473322353 580.8845827385708 359.321473322353 285.7107068528492 400.0000436425213 267.78671180552504C440.6786139626896 249.8627167582009 440.6786139626896 487.8323531311857 481.35718428285793 499.65456263048463C522.0357546030264 511.47677212978357 522.0357546030264 323.84686652800707 562.7143249231948 315.07554980272073C603.392895243363 306.30423307743445 603.3928952433632 452.7470862300405 644.0714655635314 464.56929572933944C684.7500358836999 476.3915052286384 684.7500358836999 353.5930710746302 725.4286062038681 362.36438779991647C766.1071765240363 371.13570452520275 766.1071765240365 498.89183943698146 806.7857468442048 499.65456263048463C847.4643171643731 500.4172858239878 847.4643171643734 379.1442980569859 888.1428874845415 365.41528057392907C928.82145780471 351.6862630908723 949.160742964794 424.9076896671753 969.5000281248781 444.7384926982574 " transform="rotate(8.5, 400, 400)"></path><path d="M-135.99993713923868 503.8425445195221C-116.85708051798298 443.1836176009181 -97.71422389672729 283.81933622896446 -59.4285106542159 261.2068368451062C-21.14279741170452 238.5943374612479 -21.14279741170452 406.213975751118 17.142915830806885 413.39254698408894C55.42862907331826 420.57111821705985 55.42862907331829 273.0514793795081 93.71434231582964 289.9211217769897C132.00005555834105 306.7907641744713 132.0000555583411 493.4336162317143 170.28576880085245 480.8711165740152C208.57148204336386 468.30861691631617 208.5714820433638 219.57112369387505 246.8571952858752 239.6711231461935C285.1429085283866 259.77112259851197 285.1429085283866 552.2979003420755 323.42862177089796 561.2711143832892C361.7143350134095 570.2443284245028 361.71433501340937 292.43362170852953 400.0000482559208 275.56397931104794C438.2857614984322 258.69433691356636 438.28576149843207 482.665759382258 476.5714747409436 493.7925447933629C514.857187983455 504.9193302044677 514.857187983455 328.32647787338396 553.1429012259664 320.07112095546745C591.4286144684777 311.81576403755093 591.4286144684778 449.6443317105919 629.7143277109892 460.77111712169676C668.0000409535005 471.89790253280165 668.0000409535005 356.3229056819704 706.2857541960119 364.5782625998869C744.5714674385232 372.8336195178034 744.5714674385233 493.07468767006577 782.8571806810347 493.7925447933629C821.142893923546 494.51040191665993 821.1428939235462 380.3711193124229 859.4286071660576 367.4496910930753C897.7143204085689 354.52826287372767 916.8571770298247 423.44254671024817 936.0000336510802 442.1068319159725 " transform="rotate(8, 400, 400)"></path><path d="M-102.49996777091712 497.3524016995153C-84.5535396884899 440.48465771332405 -66.60711160606269 291.08064392711753 -30.714255441208252 269.8814257547504C5.178600723646184 248.68220758238328 5.178600723646184 405.82561847913655 41.07145688850059 412.5555290100467C76.964313053355 419.285439540957 76.96431305335506 280.98577813075224 112.85716921820944 296.8010678783912C148.75002538306387 312.6163576260302 148.75002538306387 487.5940314296955 184.6428815479183 475.81668800060265C220.53573771277274 464.0393445715098 220.5357377127727 230.84794467547124 256.4285938776271 249.69169416201981C292.32145004248156 268.5354436485684 292.32145004248156 542.7792977831591 328.21430620733605 551.191685946797C364.1071623721905 559.6040741104347 364.1071623721905 299.1565365642098 400.00001853704487 283.34124681657084C435.89287470189936 267.5259570689318 435.89287470189925 477.4991656333302 471.78573086675374 487.930526956241C507.6785870316081 498.3618882791518 507.6785870316081 332.8060892187608 543.5714431964626 325.06669210821406C579.464299361317 317.32729499766737 579.4642993613171 446.5415771911433 615.3571555261716 456.9729385140541C651.2500116910259 467.4042998369649 651.2500116910259 359.0527402893106 687.1428678558802 366.7921373998573C723.0357240207347 374.5315345104041 723.0357240207348 487.25753590315 758.9285801855891 487.930526956241C794.8214363504435 488.60351800933205 794.8214363504437 381.5979405678598 830.7142925152981 369.4841016122214C866.6071486801524 357.37026265658307 884.5535767625797 421.977403753321 902.500004845007 439.4751711336875 " transform="rotate(7.5, 400, 400)"></path><path d="M-68.99999840259557 490.862251250114C-52.24999885899683 437.7856901963355 -35.4999993153981 298.34194399587614 -2.0000002282006335 278.5560070350001C31.499998858996832 258.77007007412413 31.499998858996832 405.43725357776054 64.9999979461943 411.71850340661C98.49999703339176 417.99975323545954 98.4999970333918 288.9200692526018 131.99999612058926 303.6810063503982C165.4999952077867 318.4419434481946 165.4999952077867 481.75443899828224 198.99999429498416 470.76225179779556C232.49999338218169 459.7700645973089 232.49999338218163 242.1247580276729 265.9999924693791 259.71225754845153C299.4999915565766 277.2997570692302 299.4999915565766 533.2606875948484 332.999990643774 541.1122498809102C366.49998973097155 548.963812166972 366.4999897309715 305.87944379049554 399.99998881816896 291.11850669269916C433.4999879053664 276.35756959490277 433.4999879053664 472.3325642550079 466.9999869925639 482.06850148972467C500.49998607976136 491.80443872444147 500.49998607976136 337.28569293474317 533.9999851669588 330.06225563156625C567.4999842541563 322.83881832838927 567.4999842541564 443.4388150423001 600.9999833413539 453.17475227701686C634.4999824285513 462.91068951173366 634.4999824285513 361.7825672672563 667.9999815157487 369.0060045704333C701.499980602946 376.2294418736102 701.4999806029462 481.4403765068397 734.9999796901437 482.06850148972467C768.4999787773411 482.69662647260964 768.4999787773412 382.8247541939022 801.9999778645386 371.5185045019731C835.4999769517361 360.21225481004393 852.2499764953347 420.51225316699936 868.9999760389335 436.8435027220081 " transform="rotate(7, 400, 400)"></path><path d="M-35.499998516695875 484.3720779125291C-19.94642751192562 435.0866997911634 -4.392856507155372 305.6032211764511 26.714285502385138 287.23056542706627C57.82142751192566 268.8579096776814 57.82142751192566 405.0488657882009 88.92856952146613 410.8814549149897C120.03571153100663 416.71404404177855 120.03571153100665 296.8543374862678 151.14285354054715 310.5609219342216C182.24999555008765 324.2675063821754 182.24999555008765 475.91482367868537 213.3571375596282 465.70779270680487C244.4642795691687 455.50076173492437 244.46427956916864 253.40154849169096 275.57142157870913 269.7327980466997C306.6785635882497 286.06404760170847 306.6785635882497 523.7420545183538 337.7857055977902 531.0327909268399C368.89284760733074 538.3235273353259 368.8928476073307 312.6023281285977 399.9999896168712 298.89574368064393C431.10713162641173 285.18915923269014 431.1071316264116 467.16593998850203 462.21427363595217 476.20645313502473C493.3214156454927 485.2469662815475 493.3214156454927 341.76527376254194 524.4285576550333 335.0577962667347C555.5356996645737 328.3503187709276 555.5356996645738 440.33603000527336 586.6428416741143 449.3765431517961C617.7499836836547 458.4170562983188 617.7499836836547 364.5123713570184 648.8571256931951 371.2198488528256C679.9642677027356 377.92732634863273 679.9642677027358 475.6231942223459 711.0714097122762 476.20645313502473C742.1785517218167 476.7897120477037 742.1785517218168 384.05154493176104 773.2856937313574 373.5528845035411C804.3928357408978 363.0542240753212 819.946406745668 419.0470796924941 835.4999777504382 434.2118114221451 " transform="rotate(6.5, 400, 400)"></path><path d="M-1.999998630796192 477.8819198337333C12.357143835145578 432.3877246447804 26.71428630108734 312.86451361581516 55.428571232970896 295.90513907792143C84.14285616485444 278.9457645400277 84.14285616485444 404.6604932574303 112.85714109673796 410.0444216821585C141.5714260286215 415.4283501068867 141.57142602862152 304.78862097872286 170.28571096050507 317.44085277683405C198.9999958923886 330.09308457494524 198.99999589238863 470.0752236178775 227.71428082427218 460.65334887460324C256.4285657561557 451.2314741313289 256.42856575615565 264.6783542144981 285.14285068803923 279.7533538037369C313.8571356199228 294.82835339297577 313.8571356199228 514.2234367006484 342.57142055180634 520.9533472315586C371.2857054836899 527.6832577624689 371.28570548368987 319.32522772548896 399.9999904155734 306.67299592737777C428.714275347457 294.0207641292666 428.7142753474569 461.99933098078526 457.42856027934045 470.3444200391139C486.1428452112241 478.68950909744257 486.1428452112241 346.24486984912977 514.8571301431076 340.0533521606924C543.5714150749911 333.86183447225494 543.5714150749913 437.2332602270357 572.2857000068747 445.5783492853643C600.9999849387583 453.923438343693 600.9999849387583 367.2421907055696 629.7142698706417 373.433708394007C658.4285548025251 379.6252260824444 658.4285548025254 469.8060271966411 687.1428397344089 470.3444200391139C715.8571246662923 470.8828128815867 715.8571246662925 385.27835092840894 744.571409598176 375.58727976389827C773.2856945300595 365.89620859938753 787.6428369960014 417.5819214767779 801.999979461943 431.58013538107116 " transform="rotate(6, 400, 400)"></path><path d="M31.50000125510349 471.39174649614847C44.66071518221678 429.68873423960827 57.82142910933007 320.1257907963901 84.14285696355665 304.57969746998754C110.46428481778324 289.03360414358497 110.46428481778324 404.2721054678707 136.78571267200982 409.2073731905382C163.10714052623638 414.1426409132057 163.1071405262364 312.7228892123889 189.42856838046296 324.3207683606575C215.74999623468955 335.91864750892603 215.74999623468958 464.2356082982806 242.07142408891616 455.59888978361255C268.3928519431427 446.9621712689444 268.39285194314266 275.95514467851615 294.7142797973693 289.7738943019851C321.0357076515959 303.592643925454 321.0357076515959 504.704803624154 347.35713550582244 510.8738882774884C373.67856336004905 517.0429729308227 373.678563360049 326.0481120635911 399.99999121427567 314.45023291532254C426.3214190685022 302.85235376705396 426.3214190685021 456.8327067142794 452.6428469227288 464.482371684414C478.9642747769554 472.13203665454864 478.9642747769554 350.72445067692854 505.28570263118195 345.0488927958609C531.6071304854086 339.3733349147933 531.6071304854086 434.13047519000895 557.9285583396352 441.78014016014356C584.2499861938617 449.42980513027817 584.2499861938617 369.9719947953317 610.5714140480883 375.6475526763993C636.8928419023148 381.3231105574669 636.8928419023149 463.9888449121472 663.2142697565414 464.482371684414C689.535697610768 464.97589845668074 689.535697610768 386.5051416662678 715.8571254649946 377.6216597654663C742.1785533192212 368.7381778646648 755.3392672463344 416.11674800227263 768.4999811734477 428.9484440812081 " transform="rotate(5.5, 400, 400)"></path><path d="M65.00000114100317 464.90159604674716C76.96428652928799 426.9897667226197 88.92857191757278 327.3870908651487 112.85714269414241 313.2542787502373C136.78571347071204 299.1214666353258 136.78571347071204 403.8837405664947 160.71428424728163 408.3703475871015C184.64285502385124 412.8569546077083 184.64285502385127 320.6571803342385 208.57142580042088 331.2007068326645C232.4999965769905 341.74423333109047 232.49999657699053 458.3960158668673 256.42856735356014 450.54445358080545C280.3571381301298 442.6928912947435 280.35713813012967 287.2319580307178 304.28570890669937 299.79445768841686C328.214279683269 312.3569573461159 328.214279683269 495.1861934358431 352.14285045983866 500.79445221160165C376.07142123640824 506.40271098736014 376.0714212364082 332.77101928987685 399.9999920129778 322.22749279145086C423.92856278954747 311.68396629302487 423.9285627895474 451.6661053359571 447.85713356611706 458.6203462178977C471.7857043426867 465.57458709983825 471.7857043426867 355.20405439291085 495.71427511925634 350.04445631921305C519.642845895826 344.8848582455152 519.642845895826 431.02771304116584 543.5714166723956 437.9819539231064C567.4999874489652 444.9361948050469 567.4999874489652 372.7018217732774 591.4285582255347 377.8614198469752C615.3571290021043 383.02101792067305 615.3571290021044 458.171685515837 639.285699778674 458.6203462178977C663.2142705552436 459.0690069199584 663.2142705552437 387.7319552923102 687.1428413318133 379.65606265521797C711.0714121083829 371.5801700181257 723.0356974966678 414.651597415951 734.9999828849525 426.3167756695287 " transform="rotate(5, 400, 400)"></path><path d="M98.50000102690285 458.4114379679514C109.26785787635919 424.29079157623664 120.03571472581551 334.6483833045127 141.57142842472817 321.9288524010924C163.1071421236408 309.20932149767214 163.1071421236408 403.49536803572414 184.64285582255349 407.53331435427026C206.17856952146613 411.5712606728164 206.17856952146616 328.59146382669354 227.71428322037877 338.08063767527693C249.24999691929145 347.5698115238603 249.24999691929148 452.5564158060595 270.7857106182041 445.4900097486038C292.3214243171168 438.42360369114806 292.3214243171168 298.50876375352493 313.8571380160294 309.81501344545404C335.392851714942 321.1212631373832 335.392851714942 485.6675756181377 356.92856541385476 490.7150085163204C378.46427911276743 495.76244141450303 378.4642791127674 339.4939188867681 399.99999281168004 330.0047450381847C421.5357065105927 320.5155711896013 421.5357065105927 446.4994963282403 443.07142020950533 452.7583131219868C464.607133908418 459.01712991573334 464.607133908418 359.6836504794987 486.1428476073307 355.04001221317066C507.6785613062433 350.3963739468426 507.6785613062434 427.92494326292814 529.214275005156 434.18376005667466C550.7499887040686 440.4425768504211 550.7499887040686 375.43164112182853 572.2857024029813 380.0752793881566C593.8214161018939 384.71891765448464 593.8214161018941 452.3545184901322 615.3571298008065 452.7583131219868C636.8928434997192 453.1621077538414 636.8928434997193 388.95876128895804 658.428557198632 381.69045791557505C679.9642708975446 374.42215454219206 690.732127747001 413.1864392002348 701.4999845964572 423.68509962845474 " transform="rotate(4.5, 400, 400)"></path><path d="M132.00000091280253 451.92127225976105C141.57142922343039 421.59180880045903 151.14285753405824 341.9096681144822 170.28571415531394 330.6034184225531C189.42857077656961 319.2971687306239 189.42857077656961 403.106987875559 208.57142739782532 406.6962734920445C227.714284019081 410.2855591085299 227.71428401908102 336.52573968975406 246.8571406403367 344.96056088849485C265.9999972615924 353.39538208723565 265.9999972615924 446.71680811585713 285.1428538828481 440.4355582870076C304.2857105041038 434.1543084581581 304.2857105041038 309.7855618469375 323.42856712535945 319.83556157309675C342.5714237466152 329.885561299256 342.5714237466152 476.14895017103777 361.71428036787086 480.6355571916446C380.8571369891266 485.1221642122514 380.85713698912656 346.21681085426474 399.99999361038226 337.78198965552394C419.14285023163796 329.34716845678315 419.1428502316379 441.332879691129 438.28570685289367 446.8962723966814C457.42856347414937 452.4596651022339 457.42856347414937 364.163238936692 476.5714200954051 360.0355604777337C495.7142767166607 355.90788201877547 495.7142767166608 424.82216585529596 514.8571333379165 430.3855585608484C533.9999899591721 435.94895126640085 533.9999899591721 378.1614528409852 553.1428465804279 382.28913129994345C572.2857032016834 386.4168097589017 572.2857032016835 446.53734383503286 591.4285598229392 446.8962723966814C610.5714164441949 447.25520095832997 610.5714164441949 390.18555965621147 629.7142730654507 383.7248455465376C648.8571296867063 377.26413143686386 658.4285579973342 411.7212733551241 667.999986307962 421.05341595798626 " transform="rotate(4, 400, 400)"></path><path d="M165.50001605749128 445.4311141809652C173.87501582929065 418.89283365407596 182.25001560109 349.17096055384627 199.00001514468875 339.27799207340826C215.75001468828748 329.38502359297024 215.75001468828748 402.7186153447885 232.5000142318862 405.8592402592132C249.25001377548494 408.999865173638 249.25001377548494 344.4600231822091 266.0000133190837 351.8404917311073C282.7500128626824 359.2209602800055 282.7500128626824 440.8772080550493 299.50001240628114 435.381114454806C316.2500119498799 429.88502085456264 316.2500119498799 321.06236756974465 333.0000114934786 329.856117330134C349.75001103707734 338.64986709052334 349.75001103707734 466.6303323533324 366.5000105806761 470.5561134963633C383.2500101242748 474.4818946393942 383.2500101242748 352.939710451156 400.00000966787354 345.5592419022578C416.7500092114723 338.1787733533596 416.7500092114723 436.16627068341216 433.500008755071 441.03423930077054C450.25000829866974 445.90220791812897 450.25000829866974 368.6428350232798 467.0000078422685 365.0311163716913C483.7500073858672 361.41939772010284 483.75000738586726 421.71939607705826 500.500006929466 426.58736469441664C517.2500064730648 431.455333311775 517.2500064730648 380.8912721895364 534.0000060166634 384.5029908411248C550.750005560262 388.1147094927133 550.7500055602621 440.72017680932805 567.500005103861 441.03423930077054C584.2500046474596 441.348301792213 584.2500046474597 391.4123656528593 601.0000041910583 385.75924080689475C617.7500037346572 380.1061159609302 626.1250035064564 410.2561151394079 634.5000032782558 418.42173991691226 " transform="rotate(3.5, 400, 400)"></path><path d="M199.00001594339096 438.94097899035296C206.17858717636184 416.19388139587653 213.35715840933273 356.4322758813939 227.71430087527452 347.952588612447C242.07144334121628 339.4729013435002 242.07144334121628 402.3302657022015 256.428585807158 405.02222991456557C270.78572827309983 407.71419412692967 270.78572827309983 352.39432956284776 285.1428707390416 358.72044546190335C299.50001320498336 365.04656136095895 299.50001320498336 435.0376308824251 313.8571556709252 430.32669351078795C328.2142981368669 425.6157561391508 328.2142981368669 332.33919618073537 342.5714406028087 339.8766959753548C356.92858306875047 347.41419576997424 356.92858306875047 457.11173742381055 371.28572553469223 460.47669268926563C385.64286800063405 463.84164795472077 385.642868000634 359.6626329362308 400.00001046657576 353.3365170371752C414.3571529325176 347.0104011381196 414.3571529325175 430.999684563879 428.7142953984593 435.17222909304326C443.0714378644011 439.34477362220764 443.0714378644011 373.1224539980512 457.42858033034287 370.0266951538325C471.78572279628463 366.9309363096138 471.7857227962847 418.6166491870042 486.1428652622264 422.7891937161685C500.5000077281682 426.96173824533287 500.5000077281682 383.6211144262711 514.8571501941099 386.7168732704898C529.2142926600516 389.8126321147085 529.2142926600518 434.90303267180684 543.5714351259935 435.17222909304326C557.9285775919352 435.4414255142797 557.9285775919353 392.6391945376908 572.2857200578771 387.79365895543543C586.6428625238188 382.9481233731801 593.8214337567897 408.7909798118753 601.0000049897606 415.7900867640219 " transform="rotate(3, 400, 400)"></path><path d="M232.50001582929065 432.4508056527681C238.48215852343304 413.4948909907044 244.46430121757544 363.6935530619689 256.42858660586023 356.6271470045132C268.3928719941451 349.5607409470574 268.3928719941451 401.94187791264187 280.3571573824299 404.1851814229453C292.32144277071467 406.4284849332487 292.3214427707147 360.3285977965138 304.2857281589995 365.6003610457268C316.2500135472843 370.8721242949398 316.2500135472843 429.1980155628282 328.2142989355691 425.27223441979726C340.17858432385395 421.3464532767663 340.1785843238539 343.61598664475343 352.14286971213875 349.89723647360296C364.1071551004236 356.1784863024525 364.1071551004236 447.59310434731606 376.0714404887084 450.39723373519536C388.0357258769932 453.2013631230746 388.0357258769932 366.385517274333 400.000011265278 361.11375402512C411.96429665356277 355.841990775907 411.96429665356277 425.8330602973731 423.92858204184756 429.3101807383434C435.8928674301324 432.78730117931366 435.8928674301324 377.60203482584996 447.85715281841726 375.02223578900106C459.82143820670206 372.44243675215216 459.82143820670206 415.51386414997745 471.78572359498685 418.99098459094773C483.75000898327164 422.46810503191796 483.75000898327164 386.35091851603323 495.71429437155643 388.93071755288213C507.6785797598412 391.5105165897311 507.6785797598413 429.08585038731303 519.642865148126 429.3101807383434C531.6071505364109 429.5345110893737 531.6071505364109 393.86598527554963 543.5714359246957 389.8280389570035C555.5357213129805 385.7900926384574 561.517864007123 407.32580633737 567.5000067012653 413.1583954641589 " transform="rotate(2.5, 400, 400)"></path><path d="M266.00001571519033 425.96063231518326C270.78572987050427 410.79590058553225 275.5714440258182 370.95483024254384 285.14287233644603 365.3017053965793C294.71430064707386 359.6485805506147 294.71430064707386 401.55349012308227 304.28572895770174 403.348132931325C313.85715726832956 405.1427757395677 313.85715726832956 368.2628660301798 323.4285855789574 372.4802766295502C333.00001388958526 376.6976872289206 333.00001388958526 423.3584002432313 342.57144220021314 420.21777532880657C352.14287051084096 417.0771504143818 352.14287051084096 354.8927771087715 361.7142988214688 359.91777697185114C371.28572713209667 364.9427768349307 371.28572713209667 438.0744712708216 380.8571554427245 440.317774781125C390.42858375335237 442.56107829142843 390.4285837533523 373.1084016124351 400.0000120639802 368.8909910130647C409.5714403746081 364.6735804136943 409.571440374608 420.6664360308672 419.1428686852359 423.44813238364344C428.7142969958637 426.2298287364197 428.7142969958637 382.0816156536487 438.2857253064916 380.0177764241696C447.8571536171194 377.95393719469047 447.8571536171195 412.4110791129507 457.4285819277473 415.1927754657269C467.0000102383751 417.97447181850316 467.0000102383751 389.08072260579536 476.571438549003 391.14456183527443C486.1428668596308 393.2084010647536 486.14286685963083 423.26866810281916 495.71429517025865 423.44813238364344C505.28572348088653 423.6275966644677 505.28572348088653 395.09277601340847 514.8571517915144 391.86241895857154C524.4285801021422 388.63206190373467 529.2142942574562 405.8606328628648 534.0000084127701 410.52670416429584 " transform="rotate(2, 400, 400)"></path><path d="M299.50000034230095 419.4704799584333C303.0892859587864 408.0969311611951 306.67857157527186 378.2161284039538 313.8571428082427 373.97628476948034C321.0357140412136 369.73644113500694 321.0357140412136 401.1651233143576 328.2142852741845 402.5111054205396C335.3928565071554 403.85708752672167 335.3928565071554 376.19715524468074 342.5714277401263 379.36021319420854C349.74999897309715 382.52327114373634 349.74999897309715 417.5188059044694 356.92857020606806 415.1633372186508C364.1071414390389 412.80786853283223 364.1071414390389 366.1695885536245 371.2857126720098 369.9383384509342C378.4642839049807 373.70708834824393 378.4642839049807 428.55585917516214 385.6428551379516 430.23833680788965C392.8214263709225 431.9208144406172 392.8214263709225 379.83130693137224 399.99999760389335 376.66824898184444C407.17856883686426 373.50519103231665 407.1785688368642 415.49983274519633 414.3571400698351 417.58610500977846C421.535711302806 419.67237727436066 421.535711302806 386.56121746228246 428.7142825357769 385.0133380401731C435.8928537687478 383.46545861806374 435.89285376874784 409.30831505675894 443.0714250017187 411.3945873213411C450.24999623468955 413.48085958592327 450.24999623468955 391.8105476763924 457.4285674676604 393.35842709850175C464.60713870063125 394.9063065206111 464.60713870063137 417.45150679916026 471.7857099336022 417.58610500977846C478.9642811665731 417.7207032203967 478.96428116657313 396.31958773210226 486.14285239954404 393.8968199409746C493.3214236325149 391.4740521498469 496.9107092490003 404.3954803691945 500.49999486548575 407.8950338452678 " transform="rotate(1.5, 400, 400)"></path><path d="M333.00000022820063 412.98032187963753C335.3928573058576 405.39795601481205 337.7857143835146 385.4774208433178 342.5714285388285 382.65085842033557C347.3571426941424 379.82429599735326 347.3571426941424 400.77675078358703 352.14285684945634 401.67407218770836C356.9285710047702 402.57139359182975 356.9285710047702 384.1314387371358 361.71428516008416 386.240144036821C366.4999993153981 388.3488493365062 366.4999993153981 411.6792058436616 371.28571347071204 410.10889338644915C376.071427626026 408.5385809292368 376.071427626026 377.44639427643165 380.85714178133986 379.95889420797147C385.6428559366538 382.4713941395113 385.6428559366538 419.0372413574567 390.4285700919677 420.15889311260844C395.2142842472816 421.2805448677601 395.2142842472816 386.5542065282634 399.99999840259557 384.4455012285782C404.7857125579095 382.336795928893 404.7857125579095 410.3332237374795 409.57142671322345 411.72407191386765C414.35714086853733 413.11492009025574 414.35714086853733 391.04081354887023 419.14285502385127 390.0088939341307C423.92856917916515 388.97697431939116 423.9285691791652 406.20554527852124 428.7142833344791 407.5963934549094C433.49999748979303 408.9872416312975 433.49999748979303 394.5403670249436 438.28571164510697 395.5722866396831C443.07142580042085 396.6042062544227 443.0714258004209 411.6343397734555 447.8571399557348 411.72407191386765C452.64285411104873 411.8138040542798 452.64285411104873 397.5463937287501 457.4285682663627 395.93121520133167C462.21428242167656 394.31603667391323 464.6071394993336 402.9303221534783 466.9999965769905 405.26335780419384 " transform="rotate(1, 400, 400)"></path><path d="M366.5000001141003 406.49015807879584C367.69642865292883 402.6989751463831 368.8928571917573 392.73870756063593 371.28571426941426 391.32542634914483C373.6785713470712 389.9121451376537 373.6785713470712 400.38837253077054 376.0714284247282 400.83703323283123C378.4642855023851 401.2856939348919 378.4642855023851 392.06571650754495 380.8571425800421 393.12006915738755C383.24999965769905 394.17442180723015 383.24999965769905 405.8396000608078 385.642856735356 405.0544438322016C388.035713813013 404.26928760359544 388.035713813013 388.7231942771929 390.4285708906699 389.9794442429628C392.82142796832693 391.2356942087327 392.82142796832693 409.5186178177054 395.21428504598384 410.07944369528127C397.6071421236408 410.6402695728571 397.6071421236408 393.27710040310876 399.9999992012978 392.22274775326616C402.39285627895475 391.16839510342356 402.39285627895475 405.16660900771683 404.7857133566117 405.8620330959109C407.17857043426864 406.5574571841049 407.17857043426864 395.52040391341217 409.57142751192566 395.0044441060424C411.9642845895826 394.48848429867263 411.9642845895826 403.10276977823764 414.35714166723955 403.79819386643175C416.7499987448965 404.4936179546258 416.7499987448965 397.27018065144887 419.1428558225535 397.78614045881864C421.53571290021046 398.3021002661884 421.53571290021046 405.8171670257048 423.92856997786737 405.8620330959109C426.3214270555244 405.90689916611694 426.3214270555244 398.7731940033521 428.7142841331813 397.9656047396429C431.1071412108383 397.15801547593367 432.3035697496668 401.4651582157162 433.49999828849525 402.63167604107394 " transform="rotate(0.5, 400, 400)"></path></g></svg>